<svg role="img" xmlns="http://www.w3.org/2000/svg" data-name="Слой 1" viewBox="0 0 100 125" x="0px" y="0px"><defs><style>.cls-1{fill:none;}</style></defs><title>Created by Tatyana from the Noun Project</title><path class="cls-1" d="M53.15567,67.26253c.07944-.68657.12526-1.28109.22217-1.86374.09809-.59033.24657-1.16884.41325-1.93828C51.56842,65.44782,51.56842,65.44782,53.15567,67.26253Z"/><path class="cls-1" d="M46.40209,55.42983c1.45194-1.56284,1.44019-2.893.07142-3.9797C46.4469,52.93227,46.42454,54.18105,46.40209,55.42983Z"/><path class="cls-1" d="M43.48678,56.09884c-1.11849.59159-.928,1.14289-.02526,1.78292a14.88721,14.88721,0,0,1,1.33824,1.16492c.69517-.76975,1.33779-1.48141,1.95412-2.16386C45.71471,55.747,44.28752,58.12085,43.48678,56.09884Z"/><path class="cls-1" d="M42.63611,50.54377l-.23739-.13542A33.87909,33.87909,0,0,0,41.185,54.481c-.06617.36208.729.93812,1.12853,1.41587a4.53056,4.53056,0,0,0,.65527-1.59432C42.9685,53.05732,42.76,51.79761,42.63611,50.54377Z"/><path class="cls-1" d="M56.85472,62.53622q-.26244-.09407-.52506-.188-.46653,1.67764-.933,3.35539.22015.089.44049.17784Q56.34592,64.20887,56.85472,62.53622Z"/><path class="cls-1" d="M37.09689,61.79116q-.20136.10734-.40249.21477c.25133.76744.50277,1.535.83872,2.56079.53172-.54531.8259-.847,1.22365-1.25489C38.1096,62.719,37.60329,62.25506,37.09689,61.79116Z"/><path class="cls-1" d="M51.48356,74.08218a1.15331,1.15331,0,0,0,1.09292.14015,5.20736,5.20736,0,0,1,4.77714-1.47913c-1.91334-1.72678-3.70968-3.29541-5.44706-4.927-3.77135-3.54169-7.57765-7.05061-11.24235-10.70007-2.31053-2.30092-4.33894-4.88044-6.58617-7.2485-3.61455-3.80887-7.32418-7.52852-10.95623-11.32121-1.86537-1.94778-2.37628-1.99426-4.19214-.08367a2.35882,2.35882,0,0,0,.18326,3.51822c2.00448,1.88261,3.97394,3.7911,5.868,5.79674,3.4593,3.663,7.10995,7.14963,10.72216,10.66734,1.87754,1.82836,3.8792,3.52923,5.76033,5.35415,2.18841,2.12313,4.321,4.30472,6.44907,6.48874C49.12468,71.53193,50.25435,72.85632,51.48356,74.08218Z"/><path class="cls-1" d="M36.91374,51.00715c1.19716,1.36845,1.43483,1.36525,2.72837.2214,1.215-1.07447,2.46613-2.10882,3.798-3.24331-.73441-.77282-1.55083-1.641-2.37726-2.49977-1.6059-1.66888-1.62039-1.68-3.23441-.22726-1.087.97834-2.13335,2.00107-3.22161,3.02633C35.47309,49.30882,36.18051,50.169,36.91374,51.00715Z"/><path class="cls-1" d="M43.92315,68.51721c-1.0281-1.02384-2.15229-2.20261-3.35743-3.29056a1.21931,1.21931,0,0,0-1.15639-.02746c-1.256.90924-2.44013,1.91322-3.90887,3.09185,1.734,1.56123,3.28129,2.95428,4.554,4.10006C41.42882,71.0148,42.61227,69.82979,43.92315,68.51721Z"/><path class="cls-1" d="M50.3334,56.31887c-1.59021,1.19278-3.11486,2.46933-4.78578,3.81743,1.45275,1.28707,2.80492,2.53829,4.22928,3.69833a1.27691,1.27691,0,0,0,1.20813.03011c1.553-1.185,3.03735-2.45679,4.7333-3.85534-1.52776-1.39317-2.8019-2.61477-4.157-3.7362A1.30486,1.30486,0,0,0,50.3334,56.31887Z"/><path class="cls-1" d="M36.92987,41.31786c-.1128.90334-.20013,1.60246-.28747,2.30148l.34873.24239c.46929-.38233.9387-.76457,1.45188-1.18266C37.88884,42.18062,37.48293,41.81542,36.92987,41.31786Z"/><path class="cls-1" d="M34.83026,45.87163c-1.19393-.8403-1.5925-.177-2.02832.58934C33.93257,47.40924,34.22628,46.3898,34.83026,45.87163Z"/><path class="cls-1" d="M44.156,49.1849c.29558.77032.59116,1.54064.91968,2.39689.18292-.49949.33242-.90752.51347-1.40194q-.64268-.60744-1.2821-1.2115Z"/><path class="cls-1" d="M33.42034,42.88352l.55118.12138q.20235-1.12593.40463-2.25165l-.54332-.12763Q33.62654,41.75452,33.42034,42.88352Z"/><path class="cls-1" d="M56.91948,64.60167c.18379,1.3897-1.6329,2.19249-.80711,3.77061l.5452.15817q.41049-1.88346.82086-3.767Z"/><path class="cls-1" d="M24.64325,36.94644c-.505.372-.54446.7237-.02882,1.20081.75508.69853,1.47429,1.4361,2.21015,2.15568,1.48,1.44733,1.56408,1.43033,2.9804.10352.5215-.4886,1.16977-.8412,1.73378-1.288.55561-.44024,1.07776-.92132,1.721-1.47623-1.49533-1.47244-2.79785-2.755-4.11508-4.052C27.58564,34.75443,26.12059,35.85839,24.64325,36.94644Z"/><path class="cls-1" d="M34.37315,44.78185q.33532.08517.67063.17015.15738-.82362.31464-1.64723-.32727-.08332-.65452-.16645Q34.53848,43.9601,34.37315,44.78185Z"/><path class="cls-1" d="M30.89292,43.54659l.56746.20583q.41388-1.36881.82777-2.73753-.28794-.10158-.57588-.20326Q31.30257,42.17906,30.89292,43.54659Z"/><path class="cls-1" d="M43.52237,53.20169q.26306.03693.526.07367.10666-1.17461.21327-2.34912l-.45813-.0803Q43.66285,52.02392,43.52237,53.20169Z"/><path class="cls-1" d="M58.679,63.5c-.12952,1.21986-.24881,2.34367-.3681,3.46748l.342.07927C59.37118,65.79145,59.48661,64.037,58.679,63.5Z"/><path class="cls-1" d="M32.59879,42.79624c-.285.92911-.50479,1.64575-.739,2.4096C33.26733,45.2832,33.38027,44.9232,32.59879,42.79624Z"/><path class="cls-1" d="M44.14471,55.94345q.27478.05928.54957.11847c1.05314-.96584.28254-2.14892.29109-3.23928l-.40321-.06187Q44.36345,54.35221,44.14471,55.94345Z"/><path class="cls-1" d="M56.43455,83.4971c-.6562.10724-1.12542.18395-1.76787.289C55.79654,84.6516,56.07972,84.60908,56.43455,83.4971Z"/><path class="cls-1" d="M65.13477,83.29582c-.20008.82667.07227,1.33842,1.00221,1.47252,1.569.22627.86811-1.07189,1.28636-1.88974C66.45435,82.87252,65.49,81.82754,65.13477,83.29582Z"/><path class="cls-1" d="M57.81825,83.36738a1.37557,1.37557,0,0,0,.22234,1.04032c1.14078.59923,1.86049.199,2.13358-1.02542.05009-.22453.25662-.404.59886-.91455.17711.78758.26535,1.213.36922,1.63561.2891,1.17659,1.31223.69243,1.99286.90416.23348.07259.81786-.37984.88695-.69346.25149-1.14091.35273-2.32463.52736-3.61555-.29384-.06687-.49375-.18077-.61119-.12887C61.8847,81.47626,59.83378,82.38919,57.81825,83.36738Z"/><path class="cls-1" d="M72.53947,84.29c.74338.55509,1.43064-.11555,2.14353-.22625q-.01347-.18435-.02706-.36871l-2.13724.17468Z"/><path class="cls-1" d="M68.32166,84.5464c3.03666.672,3.337.57014,2.675-2.2939C68.41342,82.52974,68.07133,82.81472,68.32166,84.5464Z"/><path class="cls-1" d="M82.669,83.41035c.47615-.427.8983-.80544,1.32044-1.18392q-.15994-.16722-.31979-.33446C82.236,81.88649,82.02511,82.13439,82.669,83.41035Z"/><path class="cls-1" d="M14.89674,73.11311a5.47629,5.47629,0,0,0,4.7438,3.30659C18.49413,74.60782,16.63919,74.27528,14.89674,73.11311Z"/><path class="cls-1" d="M27.85959,79.69623c2.7914.69745,5.41674,1.35348,8.2366,2.058C34.53472,78.71992,30.23511,78.46218,27.85959,79.69623Z"/><path class="cls-1" d="M51.97317,82.00317a5.70339,5.70339,0,0,0-7.40842,1.34746c1.85431.25006,8.79634.91123,8.97411.45337C53.95482,82.73277,52.67406,82.479,51.97317,82.00317Z"/><path class="cls-1" d="M16.16867,64.6121a3.00534,3.00534,0,0,0,1.40657,1.331,21.3652,21.3652,0,0,0,3.47443.44214c.56888-.44821,1.30585-1.07915,2.09764-1.63607.57987-.4078.44508-.76653-.00837-1.20033-.77874-.74509-1.52164-1.53265-2.34458-2.22328a1.08443,1.08443,0,0,0-1.00674-.09152,34.56889,34.56889,0,0,0-2.95955,2.2784C16.50326,63.79076,16.05427,64.42265,16.16867,64.6121Z"/><path class="cls-1" d="M22.71928,54.23125c.91282-.7902.83788-1.5638-.34309-3.17594C22.05277,52.17259,21.0816,53.23294,22.71928,54.23125Z"/><path class="cls-1" d="M25.46476,57.52638a15.89,15.89,0,0,1,2.34115,2.5275c.65562.88952,1.08555.991,1.87045.25779a37.79029,37.79029,0,0,1,3.18209-2.42643c-1.14008-1.1033-2.3918-2.34611-3.68883-3.53928a1.091,1.091,0,0,0-.93775-.24333c-.96086.57714-1.85112,1.26231-2.77969,1.89071C24.74112,56.47471,24.71941,56.87732,25.46476,57.52638Z"/><path class="cls-1" d="M26.68423,51.6646q-.28027.12-.56051.24018.27342.66772.54674,1.33535.3221-.13448.64417-.269Q26.99939,52.31785,26.68423,51.6646Z"/><path class="cls-1" d="M34.02846,58.865c-.28721-.1402-.77016.16859-1.3434.31676,1.19112,1.32979,3.31734,1.57474,2.88375,3.72154C36.05514,60.80326,35.61238,59.63893,34.02846,58.865Z"/><path class="cls-1" d="M17.96638,43.58427c-1.16614.886-2.24571,1.88139-3.34166,2.82928,2.74108,3.41363,4.81482,3.4925,7.28968.42589-.96393-1.02366-1.84475-2.02422-2.8073-2.93853C18.8433,43.65031,18.15938,43.43757,17.96638,43.58427Z"/><path class="cls-1" d="M86.76092,70.40055c1.69229-.36838,3.36008-.73133,5.2752-1.14812-4.53437-2.53169-8.88023-4.9582-13.22608-7.38471q-.12181.17151-.24373.343,2.852,2.56626,5.70377,5.13323C85.30165,68.2736,86.62559,68.98141,86.76092,70.40055Z"/><path class="cls-1" d="M32.8999,64.76333l-.18206.12269c.47459.64169.94927,1.28336,1.59662,2.15831.87732-.72877,1.622-1.34726,2.36677-1.96574l-.27291-.34459c-.56182.34484-1.102.95291-1.6915.96007C34.13712,65.70112,33.50754,65.09847,32.8999,64.76333Z"/><path class="cls-1" d="M83.82743,77.12322a1.36529,1.36529,0,0,0-.79852.25285c-1.44387,1.47581-3.3366,1.14371-5.11958.77736a3.08654,3.08654,0,0,0-2.29357.33432,40.32385,40.32385,0,0,1-4.79971,1.91682c-1.2727.10766-2.54658.20814-3.82005.31074-.405.03271-.8097.06618-1.39526.114,1.52545,1.453,4.8564,1.22784,6.38694-.25309.37715.371.63992,1.50734.35264,1.76473,2.48269,1.514,1.81046-1.42,2.83641-1.79492.40973.82926.75735,1.533,1.10507,2.23666a4.44428,4.44428,0,0,1-.33642,1.4934c.71131-.00148,1.23908-.00262,1.81029-.00376-.5633-1.95752-.34955-3.30279.7282-3.90188.0271.96184.05076,1.79865.07841,2.781A8.20376,8.20376,0,0,0,80.8134,81.768a6.33381,6.33381,0,0,0,.68077-2.23655q.23133.05709.46283.11405l.28086,1.85863c.79585-.52352,1.43236-.94234,2.15134-1.41531.38485.20118.93631.48945,1.46981.76828-.42283.482-.78679.89676-1.35867,1.54843,4.373-.94484,6.28181-2.932,5.96217-5.95983-.48187.07126-.95628.16344-1.43849.20856C87.29277,76.81658,85.55773,76.95524,83.82743,77.12322Z"/><path class="cls-1" d="M17.14841,58.10232c.0331.67728.06021,1.23278.10368,2.12237C18.4149,59.03251,18.39518,58.82825,17.14841,58.10232Z"/><path class="cls-1" d="M32.10261,70.50965a53.01107,53.01107,0,0,0,4.8085,2.91081,1.6719,1.6719,0,0,0,2.33631-.19833,13.39122,13.39122,0,0,1-1.71921-1.27444c-2.51512-2.59138-4.99412-5.21749-7.48165-7.83533-2.42741-2.55468-4.83892-5.12444-7.27772-7.66836-2.58334-2.69459-5.16467-5.39211-7.801-8.03467-.94457-.94676-1.36105-.79744-1.74423.37292-.17664.53911-.3695,1.07187-.55351,1.60813A3.23088,3.23088,0,0,0,14.97554,54.631a7.53667,7.53667,0,0,1,4.22006,3.11569,5.76725,5.76725,0,0,0,.77215,1.02183c2.58122,2.581,5.1632,5.16167,7.77354,7.71331A47.80325,47.80325,0,0,0,32.10261,70.50965Z"/><path class="cls-1" d="M64.41194,72.33893a14.59206,14.59206,0,0,1,2.20528-1.34574c-.70366-.6573-1.29243-1.208-1.88212-1.75766a17.9308,17.9308,0,0,0-1.9025-1.71842,1.38093,1.38093,0,0,0-1.25906-.0707,26.47305,26.47305,0,0,0-2.754,2.32868c-.86246.81736-.72825,3.02782.34634,3.58063a25.415,25.415,0,0,0,3.89287,1.309q-.06455-.21944-.12894-.43908A12.44,12.44,0,0,1,64.41194,72.33893Z"/><path class="cls-1" d="M75.39668,67.717a7.2025,7.2025,0,0,1,.83767-1.29918,9.5775,9.5775,0,0,1,1.608-1.25552c.78834-.51042.87666-1.05214.139-1.77668-1.13705-1.11694-2.222-2.29036-3.40488-3.35465a1.26174,1.26174,0,0,0-1.20837-.02262c-1.00861.78219-1.92152,1.68315-2.92971,2.59436A13.42239,13.42239,0,0,0,75.39668,67.717Z"/><path class="cls-1" d="M80.429,66.37548l-.19753-.08714q-.69807,1.39971-1.39605,2.79942.30168.12362.60339.24744Q79.93386,67.85529,80.429,66.37548Z"/><path class="cls-1" d="M66.23289,50.27079c2.2118-.8942.76071-2.92434,1.18765-4.36819l-.4494-.119C66.72557,47.27629,66.48,48.76895,66.23289,50.27079Z"/><path class="cls-1" d="M55.03532,44.04041q.30441.04845.60872.097.12567-1.41106.25144-2.82213l-.57746-.09267Q55.17678,42.63156,55.03532,44.04041Z"/><path class="cls-1" d="M64.32741,48.86659c-.1203.49319-.24509.98517-.34116,1.48464a2.2312,2.2312,0,0,0,.41684.15666c.19378-.4691.3625-.94992.5345-1.42913Z"/><path class="cls-1" d="M66.04428,58.03613l.30531.08128c.35394-.92886.70789-1.85771,1.09834-2.8822-.39481-.20046-.79871-.40539-1.05156-.53374C66.27265,55.87364,66.15847,56.95493,66.04428,58.03613Z"/><path class="cls-1" d="M61.73071,54.51063a1.13774,1.13774,0,0,0,1.00668.172,12.50715,12.50715,0,0,0,1.63011-1.2c-1.57982-2.03152-4.17676-3.38707-3.3982-6.46642-1.07187,1.02314-2.02531,1.942-2.98947,2.84938-.43251.407-.49126.76962.03655,1.24318C59.26605,52.22988,60.46509,53.40883,61.73071,54.51063Z"/><path class="cls-1" d="M57.54505,48.20841l.00044-.49028c-1.16483.6487-2.00145.40595-2.55006-.6971-.02729-.055-.405-.05788-.43981.01243-.09.18254-.186.51951-.0919.61835.55828.58645,1.1698,1.12271,1.76516,1.67751C56.77575,48.86363,57.1604,48.536,57.54505,48.20841Z"/><path class="cls-1" d="M39.77864,26.768c-1.27392.97591-2.5739,1.91923-4.10927,3.05884,1.311,1.18937,2.47348,2.24393,3.57629,3.24435,1.60451-1.36619,3.09271-2.63346,4.65224-3.96135-.73622-.70646-1.53371-1.36848-2.20051-2.14043A1.19844,1.19844,0,0,0,39.77864,26.768Z"/><path class="cls-1" d="M42.01422,35.34882l-.29747-1.96852C40.50648,34.47131,40.56356,34.76291,42.01422,35.34882Z"/><path class="cls-1" d="M68.00479,59.95332c.54408-1.04984,1.03034-1.98852,1.51671-2.92712l.637.24008q-.18238,1.0998-.36467,2.19959l.10466.03955c.29828-.68626.59657-1.37243.92356-2.125-.71189-.46323-1.38886-.90375-2.25078-1.4647C68.31661,57.30754,67.13944,58.32955,68.00479,59.95332Z"/><path class="cls-1" d="M69.41911,46.84456c1.257-.86358.39262-1.85741-.1298-2.84084C69.33344,44.97017,69.37766,45.93661,69.41911,46.84456Z"/><path class="cls-1" d="M85.21138,26.97383l.24985.1046c.40384-.35141.8078-.70273,1.24364-1.08184.15328.28748.2473.46374.40257.75469.8736-1.63488-.83792-3.53347-3.178-3.66887q-.07719,1.35221-.15431,2.703a1.24253,1.24253,0,0,0,.7215-.41623c.29357-.25977.60912-.49517.91539-.74083a10.08785,10.08785,0,0,1,.08034,1.35557A4.66336,4.66336,0,0,1,85.21138,26.97383Z"/><path class="cls-1" d="M85.33077,19.68639a24.28869,24.28869,0,0,0-2.49231-.04113A4.17634,4.17634,0,0,1,78.696,17.46043c-.98386-1.65008-3.01762-2.81264-4.31454-2.36877a11.956,11.956,0,0,0-3.38231,1.7635c-1.34113,1.03019-2.70226,1.6245-4.4384.90927-1.4486-.5969-2.90145-1.20889-4.28873-1.94625-2.34593-1.24711-4.24385-1.00327-5.33285.79775-.5411.89486-1.08463,1.79042-1.67943,2.64768a1.06168,1.06168,0,0,1-1.59073.30786,8.98617,8.98617,0,0,0-3.26805-1.24139A4.26392,4.26392,0,0,0,46.363,20.77894a1.22629,1.22629,0,0,1-1.82307.62528,7.06888,7.06888,0,0,0-1.20931-.388c-3.26222-.89278-6.23059-.64427-7.94046,2.05833-1.18112,1.86708-2.96909,2.40106-5.04815,2.33806a8.4022,8.4022,0,0,0-5.33839,1.68927c-.4684.33967-1.05505.86-1.09129,1.367a2.79615,2.79615,0,0,1-2.00155,2.48171c-1.71007.74008-3.49066,1.34162-5.17158,2.1342-2.12882,1.00388-2.94851,2.37606-2.6605,4.084.33971,2.01376.13469,2.19872-1.58,3.19532a16.6358,16.6358,0,0,0-4.02554,2.97665c-1.37817,1.51845-1.13247,3.16188.46539,4.5989a2.37658,2.37658,0,0,1,.61156,3.12871q-.88146,1.99677-1.6983,4.025a2.78823,2.78823,0,0,0,.55524,3.0382c.53613.61659,1.0809,1.2314,1.67018,1.79652,2.52137,2.41786,2.59043,2.6056,1.52127,5.68479a3.66393,3.66393,0,0,0,.771,4.087A16.575,16.575,0,0,0,15.717,72.03519c2.02084,1.15339,4.14188,1.98215,5.47645,4.22562,1.17277,1.97144,3.14065,2.30321,5.34825,1.82129a21.993,21.993,0,0,1,5.48089-.596c2.36184.09093,4.05864,1.79764,5.70513,3.39406,1.56354,1.516,2.78674,1.84779,4.66923,1.06686a23.37505,23.37505,0,0,0,2.90553-1.49937,6.52443,6.52443,0,0,1,7.30544.29909,5.51641,5.51641,0,0,0,6.32228.22128c2.30841-1.36618,4.64375-2.94308,7.71005-1.93583a4.863,4.863,0,0,0,3.51831-.092c.68018-.2832,1.29282-.70656,1.96581-1.00757,1.11474-.49863,2.23817-.98568,3.38949-1.40339a2.611,2.611,0,0,1,1.62142-.22774,5.72292,5.72292,0,0,0,4.70585-.204,13.94007,13.94007,0,0,1,6.42782-1.07639c2.25506.04124,3.48439-1.19356,3.13125-3.792-.873.07135-1.92588-.12951-2.59227.26952a7.17536,7.17536,0,0,1-4.88358.602,2.88308,2.88308,0,0,0-2.02508.392,13.25259,13.25259,0,0,1-5.02958,2.27,6.5201,6.5201,0,0,1-4.36426-.58591,4.40678,4.40678,0,0,0-1.76571-.46367c-1.58179.11394-3.31248-.02415-4.28745,1.57485-.11074.18168-.40595.25135-.62564.3535-2.08194.96779-4.1601.56842-6.23239-.46332-1.61994-.80647-3.23745-1.27969-4.84467-.31136-2.53512,1.52733-5.22027,1.27672-7.80878-.57449a7.66505,7.66505,0,0,0-2.44718-.94109c-1.42344-.38895-2.37346.513-3.45133,1.12427-2.14633,1.21738-4.12941,1.40258-5.77143-.47169a5.10619,5.10619,0,0,0-2.04709-1.26691c-1.35-.49371-2.60816-1.132-4.14316-.27152-1.95058,1.09339-3.78462.58917-4.97428-1.44679-1.36747-2.34023-3.12236-3.087-5.61372-3.22792-2.5686-.14535-5.07136-2.96044-4.89335-5.09245.12307-1.47291.25683-2.94946.5035-4.39667a3.18151,3.18151,0,0,0-1.32646-3.40019c-2.4448-1.91823-2.923-4.972-1.11713-7.24392,1.405-1.76763,2.47456-3.8705,4.59021-4.99774.67616-.36029.74521-.87742.39808-1.66526a2.90311,2.90311,0,0,1,1.14038-4.05055,20.59992,20.59992,0,0,0,2.97459-2.03008c2.15658-2.14953,5.03207-3.0063,7.76094-4.09867a10.88263,10.88263,0,0,0,4.865-3.37065c.843-1.08962,1.86739-2.40711,3.1038-2.73548a44.37763,44.37763,0,0,1,8.75211-1.30512,9.95608,9.95608,0,0,0,4.47778-1.22853,13.19522,13.19522,0,0,1,9.75083-1.602,18.29414,18.29414,0,0,0,8.91833-.20258,21.63531,21.63531,0,0,1,8.39436.10209c2.0724.32893,4.11212,1.48362,6.21631.54008.21837-.09791.568.03394.85045.098,1.93781.43947,3.70545,1.17161,4.71043,3.36667A3.8165,3.8165,0,0,0,85.33077,19.68639Z"/><path class="cls-1" d="M83.65063,33.51564a11.091,11.091,0,0,1,.06471,2.80229c1.723-1.27633,1.723-1.27633,1.2327-3.38785C84.50442,33.13021,84.07757,33.32288,83.65063,33.51564Z"/><path class="cls-1" d="M86.05949,29.14561c-3.30192,2.22435-6.56987,4.49618-9.86331,6.73263-4.28811,2.91155-8.5446,5.86341-12.04488,9.7129-.79413.87344-1.73517,1.71641-1.65312,3.1642a2.00308,2.00308,0,0,0,.873-.65681,15.07378,15.07378,0,0,1,1.98-2.42851C70.16877,41.83543,74.99,38.00074,79.936,34.32857c2.37057-1.76,5.02768-3.14866,7.52927-4.74319A6.04383,6.04383,0,0,0,88.49506,28.498l-.40944-.37759A17.64644,17.64644,0,0,0,86.05949,29.14561Z"/><path class="cls-1" d="M81.0202,37.98631c1.31556-.692.8967-1.88592.763-2.9925l-.34054-.08853C81.30336,35.92105,81.164,36.93692,81.0202,37.98631Z"/><path class="cls-1" d="M71.32588,45.10458c2.39327-.57293,1.30846-2.44445,1.54987-3.84687C71.03441,42.02426,72.07207,43.877,71.32588,45.10458Z"/><path class="cls-1" d="M75.15387,39.88723l-.47655-.05145c.04936.85674.09864,1.71359.16213,2.81528C75.95083,41.74577,75.17366,40.75671,75.15387,39.88723Z"/><path class="cls-1" d="M76.96885,41.629c1.78337-1.06988,2.602-1.63313,1.18735-4.42837C77.76968,38.64209,77.38327,40.08361,76.96885,41.629Z"/><path class="cls-1" d="M52.00582,45.12519l-.36625-2.42373C50.23269,43.89716,50.25388,44.21737,52.00582,45.12519Z"/><path class="cls-1" d="M83.99409,28.47017c-2.73768-4.7781-7.11391-7.4859-10.49752-6.408,2.54263,2.77278,5.04334,5.4999,7.56152,8.24615C82.00469,29.71575,82.95422,29.12124,83.99409,28.47017Z"/><path class="cls-1" d="M75.78778,33.83576c-.23719-1.10815-1.762-.697-2.05757-1.73623l-.38493.44222q1.00488.87439,2.00947,1.74873Z"/><path class="cls-1" d="M67.82058,40.36492a21.8404,21.8404,0,0,0,1.499-2.36431c.09517-.19476-.37524-.69357-.72511-1.29116-.52447,1.29228-.92943,2.29-1.3344,3.28767Q67.54032,40.18107,67.82058,40.36492Z"/><path class="cls-1" d="M71.53706,21.55288c-2.129.214-4.4953.22656-5.57354,2.79324,1.40291,1.44331,2.81719,2.89847,4.14261,4.26205a4.1206,4.1206,0,0,1,.57383-.83558A27.179,27.179,0,0,1,72.98712,25.87c1.1436-.81122,1.17708-1.08347.17483-2.22421C72.63478,23.04582,72.17852,22.38493,71.53706,21.55288Z"/><path class="cls-1" d="M75.20383,32.36231a23.824,23.824,0,0,1,.41433-2.618,3.741,3.741,0,0,1,.76248-1.06926,4.26493,4.26493,0,0,1,.58,1.47741,16.15519,16.15519,0,0,1-.46009,2.55452q.16647.1512.33295.3024c1.02015-.62231,2.04043-1.24444,3.20835-1.95683-1.61361-1.72766-3.1209-3.34136-4.62809-4.95507.79293,1.59949.0014,2.84808-.58364,4.1039A1.56525,1.56525,0,0,0,75.20383,32.36231Z"/><path class="cls-1" d="M62.05332,22.65251a36.74182,36.74182,0,0,0-3.701-.64494,3.21781,3.21781,0,0,0-.98193.22869c.48315.61678.804,1.06733,1.16652,1.4822,1.44008,1.64791,2.91918,3.26342,4.33147,4.93387.801.94719,2.65662,2.821,2.85724,3.04245,1.77408,1.9586,3.61226,3.86041,5.4546,5.80338,1.03241-.9004,1.868-1.6293,2.63568-2.29874-1.76527-2.02128-3.59491-3.91061-5.174-5.982-1.5963-2.094-3.936-3.448-5.38439-5.66492A2.28163,2.28163,0,0,0,62.05332,22.65251Z"/><path class="cls-1" d="M58.55459,47.389c.34111-.90764.68233-1.81519,1.04356-2.77611l.91322.5056.13679-.19571c-.54451-.53613-1.089-1.07216-1.83563-1.80729-.32777,1.54994-.59716,2.82353-.86652,4.09721Z"/><path class="cls-1" d="M50.08514,24.00192l.24048.54289q1.27314-.79605,2.54609-1.592l-.15118-.25745Q51.40295,23.3487,50.08514,24.00192Z"/><path class="cls-1" d="M47.79527,24.76392c-.88922.00205-1.76768.14782-2.65183.22618-.8936.07923-1.78885.14758-2.94075.24173a9.405,9.405,0,0,0,.85583,1.21251c1.94555,1.89785,3.74136,4.03772,5.94573,5.54291a17.913,17.913,0,0,1,2.31989,2.36536c3.28957,3.11138,6.61532,6.187,10.008,9.18377a2.41285,2.41285,0,0,0,2.09324.44025,10.617,10.617,0,0,0,2.26058-2.09626c-1.99491-2.05749-3.87629-4.0562-5.8214-5.99127Q54.46169,30.514,48.98427,25.21432A1.87451,1.87451,0,0,0,47.79527,24.76392Z"/><path class="cls-1" d="M52.96473,26.44214q.36812-.795.73621-1.59-.32013-.16417-.64017-.32844c-.20267.53582-.416,1.06789-.58416,1.61634C52.46527,26.177,52.79415,26.33854,52.96473,26.44214Z"/><path class="cls-1" d="M73.39905,27.78573q-.46778,1.59174-1.13409,3.8598C73.59462,31.10967,73.82327,29.95036,73.39905,27.78573Z"/><path class="cls-1" d="M45.30313,30.23583l-.52976.50452c.57588.56249,1.10083,1.07534,1.74178,1.70146C47.02089,31.25405,45.61122,31.0611,45.30313,30.23583Z"/><path class="cls-1" d="M43.05046,34.04207c.29846-.74914.5704-1.43167.96632-2.42514C42.54617,32.288,42.3696,32.8547,43.05046,34.04207Z"/><path class="cls-1" d="M44.501,36.35455a2.14637,2.14637,0,0,0,.16628-1.04325,9.557,9.557,0,0,0-.5348-1.52882c-.34066.6194-.69376.99459-.7364,1.42183a2.13275,2.13275,0,0,0,.48789,1.14323C43.94886,36.4463,44.46918,36.43722,44.501,36.35455Z"/><path class="cls-1" d="M54.57433,45.03172c-.06252-1.79365-.544-3.63166.57528-5.4679-1.05192.21336-1.5051.57421-1.52159,1.47862-.01559.85605-.16577,1.70038-.25649,2.54988a4.26121,4.26121,0,0,0-.11766,1.45172,4.82233,4.82233,0,0,0,.8278,1.273A3.56621,3.56621,0,0,0,54.57433,45.03172Z"/><path class="cls-1" d="M56.01411,47.05433q.23362.02575.46728.05161c.09429-.253.30252-.51644.26405-.75744a6.55836,6.55836,0,0,1,.53381-3.92493c.11849-.254-.23427-.75163-.36986-1.13695l-.493.068C57.05483,43.35462,55.09792,45.01844,56.01411,47.05433Z"/><path class="cls-1" d="M64.15712,38.21294q.22839-.039.4569-.078c.26834-1.5439-1.07341-3.63619,1.17142-4.53447-.51913-.44388-1.02276-.87456-1.43151-1.22418-.28157,1.43305-.632,2.80071-.78249,4.20347C63.51772,37.08061,63.94782,37.666,64.15712,38.21294Z"/><path class="cls-1" d="M71.41616,72.46218a19.32487,19.32487,0,0,1,2.43322.71738c2.55888.89065,5.1226-.36586,5.35292-2.64871q-.737-.418-1.47378-.836c.39623.7134,1.39608,1.30753.04733,2.27048-7.252-7.051-14.46678-14.16291-21.79131-21.15976C48.65282,43.80183,41.21132,36.9131,33.85193,30.00587c-1.26134.73232-2.46981,1.434-3.94,2.28752,1.16512,1.16874,2.20445,2.23513,3.27023,3.27457a57.45971,57.45971,0,0,1,4.15708,4.05558c1.18252,1.41588,2.8274,2.28258,3.88008,3.88583a41.63083,41.63083,0,0,0,3.86061,4.32591c.50538.57229,3.65906,3.76815,4.74625,4.79335.52454.49459,2.79987,2.65959,3.2599,3.08715.66392.617,1.34728,1.21562,1.98079,1.86242C57.315,59.87369,59.53456,62.197,61.786,64.48927c2.455,2.49941,5.37324,4.575,7.04545,7.66068C69.75563,72.2557,70.595,72.29332,71.41616,72.46218Z"/><path class="cls-1" d="M55.74669,23.49788c.08719.28836.11664.78032.27048.83336,1.42593.49143,1.06144,1.61069,1.10754,2.79151.59606-.35187,1.07608-.63534,1.74387-1.02967-1.06274-1.10284-1.90751-1.97945-2.75229-2.85607Q55.93148,23.36734,55.74669,23.49788Z"/><path class="cls-1" d="M53.24292,37.97942c-1.08573-.98312-2.14366-1.99783-3.24646-2.96067a.80258.80258,0,0,0-.75331-.08745c-1.35619,1.24251-2.67254,2.5279-4.09662,3.89458,1.38053,1.34255,2.69582,2.62157,4.04037,3.92919,1.446-1.27986,2.72246-2.42545,4.01861-3.54876C53.65523,38.81672,53.7732,38.45957,53.24292,37.97942Z"/><path class="cls-1" d="M59.60682,33.649a.9674.9674,0,0,0,.92142.068,16.10191,16.10191,0,0,0,2.11757-2.11516,1.252,1.252,0,0,0,.03238-1.19736c-.97907-1.22555-2.06374-2.37-3.17125-3.61051-1.18626,1.2421-2.30745,2.41583-3.46738,3.6303C57.24689,31.528,58.40108,32.61922,59.60682,33.649Z"/><path d="M89.529,20.98857c-.81821-1.5869-3.91065-3.50178-5.29908-3.04284-2.00658.66329-3.40551-.18545-4.85078-1.57768A22.9664,22.9664,0,0,0,75.825,13.68552a2.0915,2.0915,0,0,0-1.6673-.20407,36.26221,36.26221,0,0,0-4.494,2.26906,4.05911,4.05911,0,0,1-4,.39568c-1.09131-.48416-2.12981-1.114-3.235-1.55079-1.43585-.56744-2.84031-1.31687-4.45454-.70758a4.29587,4.29587,0,0,0-2.59395,2.25324c-.4267.90952-.75945,1.96569-2.19376,1.75468a25.34318,25.34318,0,0,0-4.43261-.43307A3.63982,3.63982,0,0,0,45.58717,18.983c-.48029.77108-1.04933.87582-1.97634.58833-4.0374-1.25189-7.513-.88765-9.87582,2.84083a3.633,3.633,0,0,1-2.2198,1.23087c-1.67946.35887-3.47473.32609-5.1293.74609-2.07428.52659-3.80664,1.55286-4.32157,3.92959a2.19869,2.19869,0,0,1-1.40992,1.28438,18.24462,18.24462,0,0,0-7.0603,3.81625,3.05235,3.05235,0,0,0-1.21123,3.40114,1.81872,1.81872,0,0,1-1.1445,2.42013c-1.8282.93377-3.70283,1.87153-4.58442,3.92471-.82661,1.92515-1.37334,3.56981.73125,5.38158a1.64966,1.64966,0,0,1,.4225,2.13516,37.05532,37.05532,0,0,0-1.75,4.90754,3.583,3.583,0,0,0,.38613,2.47758A19.95674,19.95674,0,0,0,9.19931,61.4575c.77646.80312,1.568,1.478,1.04289,2.66981-.1764.4003-.25665.84782-.43166,1.24888a3.88036,3.88036,0,0,0,.26806,3.93829,32.28193,32.28193,0,0,0,2.33423,2.56,3.14026,3.14026,0,0,1,.90975,1.438,4.5133,4.5133,0,0,0,3.09256,3.78032c4.182,1.78509,8.26155,3.93513,12.75221,4.7821,1.44367.27231,2.85082.83374,4.29273,1.1358,1.7936.37581,3.56208,1.13611,5.43339.698.49858-.11669,1.43533.0081,1.63114.32721.61047.99463,1.431.75434,2.22009.8131a8.06327,8.06327,0,0,1,1.24255.00477,66.04706,66.04706,0,0,0,12.66212,1.32768c3.09894.132,6.19744.62031,9.29827.35192,2.04756-.17719,4.15346.03814,6.21982-.04448a30.54289,30.54289,0,0,0,3.28324-.52921c2.5636-.38481,5.13694-.726,7.69354-1.1403.75753-.1227,1.4529-.51574,2.21044-.63845,3.62275-.58666,6.0793-2.34138,6.62515-6.19116.136-.95934,1.055-6.66435,1.93255-7.69807a1.41818,1.41818,0,0,0-.0226-1.38193A17.039,17.039,0,0,0,90.761,66.51868c-4.03615-2.254-8.147-4.36175-12.18469-6.61279-3.63021-2.02387-7.20342-4.15982-10.79583-6.25721-.36375-.21234-.68669-.50031-1.33724-.98155,1.407-1.44437,2.63-2.92338,4.08-4.13923,2.58083-2.164,5.26718-4.20961,7.96807-6.22961,3.20693-2.39856,6.47656-4.71686,9.71767-7.07178,1.43641-1.04369,2.20175-7.70561,1.3102-7.86587a2.36253,2.36253,0,0,1,.15072-.82843C90.85747,24.73061,90.50448,22.88073,89.529,20.98857ZM14.89674,73.11311c1.74245,1.16217,3.59739,1.49471,4.7438,3.30659A5.47629,5.47629,0,0,1,14.89674,73.11311Zm12.96285,6.58312c2.37552-1.234,6.67513-.97631,8.2366,2.058C33.27633,81.04971,30.651,80.39368,27.85959,79.69623ZM53.53886,83.804c-.17777.45786-7.1198-.20331-8.97411-.45337a5.70339,5.70339,0,0,1,7.40842-1.34746C52.67406,82.479,53.95482,82.73277,53.53886,83.804Zm1.12782-.01791c.64245-.105,1.11167-.18175,1.76787-.289C56.07972,84.60908,55.79654,84.6516,54.66668,83.78609Zm9.35538.528c-.06909.31362-.65347.766-.88695.69346-.68063-.21173-1.70376.27243-1.99286-.90416-.10387-.42264-.19211-.848-.36922-1.63561-.34224.51055-.54877.69-.59886.91455-.27309,1.22441-.9928,1.62465-2.13358,1.02542a1.37557,1.37557,0,0,1-.22234-1.04032c2.01553-.97819,4.06645-1.89112,6.12-2.79776.11744-.0519.31735.062.61119.12887C64.37479,81.98941,64.27355,83.17313,64.02206,84.314Zm2.11492.4543c-.92994-.1341-1.20229-.64585-1.00221-1.47252.35527-1.46828,1.31958-.4233,2.28857-.41722C67.00509,83.69645,67.70593,84.99461,66.137,84.76834Zm2.18468-.22194c-.25033-1.73168.09176-2.01666,2.675-2.2939C71.65864,85.11654,71.35832,85.2184,68.32166,84.5464Zm6.36134-.48265c-.71289.1107-1.40015.78134-2.14353.22625l-.02077-.42028,2.13724-.17468Q74.66958,83.87939,74.683,84.06375Zm7.986-.6534c-.64389-1.276-.433-1.52386,1.00065-1.51838q.15979.16724.31979.33446C83.5673,82.60491,83.14515,82.98339,82.669,83.41035Zm1.83134-1.00485c.57188-.65167.93584-1.06641,1.35867-1.54843-.5335-.27883-1.085-.5671-1.46981-.76828-.719.473-1.35549.89179-2.15134,1.41531L81.957,79.64547q-.23146-.05707-.46283-.11405A6.33381,6.33381,0,0,1,80.8134,81.768a8.20376,8.20376,0,0,1-2.25112,1.38353c-.02765-.98236-.05131-1.81917-.07841-2.781-1.07775.59909-1.2915,1.94436-.7282,3.90188-.57121.00114-1.099.00228-1.81029.00376a4.44428,4.44428,0,0,0,.33642-1.4934c-.34772-.7037-.69534-1.4074-1.10507-2.23666-1.026.37491-.35372,3.30892-2.83641,1.79492.28728-.25739.02451-1.39375-.35264-1.76473-1.53054,1.48093-4.86149,1.70606-6.38694.25309.58556-.04786.9903-.08133,1.39526-.114,1.27347-.1026,2.54735-.20308,3.82005-.31074a40.32385,40.32385,0,0,0,4.79971-1.91682,3.08654,3.08654,0,0,1,2.29357-.33432c1.783.36635,3.67571.69845,5.11958-.77736a1.36529,1.36529,0,0,1,.79852-.25285c1.7303-.168,3.46534-.30664,5.19659-.469.48221-.04512.95662-.1373,1.43849-.20856C90.78215,79.47352,88.87331,81.46066,84.50034,82.4055ZM78.81,61.86772c4.34585,2.42651,8.69171,4.853,13.22608,7.38471-1.91512.41679-3.58291.77974-5.2752,1.14812-.13533-1.41914-1.45927-2.12695-2.49084-3.05656q-2.85018-2.56862-5.70377-5.13323Q78.68828,62.03924,78.81,61.86772ZM63.05875,74.66477a25.415,25.415,0,0,1-3.89287-1.309c-1.07459-.55281-1.2088-2.76327-.34634-3.58063a26.47305,26.47305,0,0,1,2.754-2.32868,1.38093,1.38093,0,0,1,1.25906.0707,17.9308,17.9308,0,0,1,1.9025,1.71842c.58969.54965,1.17846,1.10036,1.88212,1.75766a14.59206,14.59206,0,0,0-2.20528,1.34574,12.44,12.44,0,0,0-1.48213,1.88676Q62.99424,74.44527,63.05875,74.66477ZM19.78762,61.234a1.08443,1.08443,0,0,1,1.00674.09152c.82294.69063,1.56584,1.47819,2.34458,2.22328.45345.4338.58824.79253.00837,1.20033-.79179.55692-1.52876,1.18786-2.09764,1.63607a21.3652,21.3652,0,0,1-3.47443-.44214,3.00534,3.00534,0,0,1-1.40657-1.331c-.1144-.18945.33459-.82134.6594-1.09969A34.56889,34.56889,0,0,1,19.78762,61.234Zm-2.53553-1.00932c-.04347-.88959-.07058-1.44509-.10368-2.12237C18.39518,58.82825,18.4149,59.03251,17.25209,60.22469Zm2.71566-1.45622a5.76725,5.76725,0,0,1-.77215-1.02183A7.53667,7.53667,0,0,0,14.97554,54.631a3.23088,3.23088,0,0,1-2.30542-4.24057c.184-.53626.37687-1.069.55351-1.60813.38318-1.17036.79966-1.31968,1.74423-.37292,2.63631,2.64256,5.21764,5.34008,7.801,8.03467,2.4388,2.54392,4.85031,5.11368,7.27772,7.66836,2.48753,2.61784,4.96653,5.24395,7.48165,7.83533a13.39122,13.39122,0,0,0,1.71921,1.27444,1.6719,1.6719,0,0,1-2.33631.19833,53.01107,53.01107,0,0,1-4.8085-2.91081,47.80325,47.80325,0,0,1-4.36132-4.02787C25.131,63.93014,22.549,61.34944,19.96775,58.76847Zm-5.343-12.35492c1.096-.94789,2.17552-1.94333,3.34166-2.82928.193-.1467.87692.066,1.14072.31664.96255.91431,1.84337,1.91487,2.8073,2.93853C19.43954,49.90605,17.3658,49.82718,14.62472,46.41355Zm8.09456,7.8177c-1.63768-.99831-.66651-2.05866-.34309-3.17594C23.55716,52.66745,23.6321,53.44105,22.71928,54.23125Zm5.51259-.12862a1.091,1.091,0,0,1,.93775.24333c1.297,1.19317,2.54875,2.436,3.68883,3.53928a37.79029,37.79029,0,0,0-3.18209,2.42643c-.7849.73322-1.21483.63173-1.87045-.25779a15.89,15.89,0,0,0-2.34115-2.5275c-.74535-.64906-.72364-1.05167-.01258-1.533C26.38075,55.36494,27.271,54.67977,28.23187,54.10263Zm-2.10815-2.19785q.28025-.12014.56051-.24018.31511.65325.6304,1.30648-.32209.13447-.64417.26905Q26.39706,52.57255,26.12372,51.90478Zm9.44509,10.99854c.43359-2.1468-1.69263-2.39175-2.88375-3.72154.57324-.14817,1.05619-.457,1.3434-.31676C35.61238,59.63893,36.05514,60.80326,35.56881,62.90332Zm.83951,1.83068.27291.34459c-.74473.61848-1.48945,1.237-2.36677,1.96574-.64735-.87495-1.122-1.51662-1.59662-2.15831l.18206-.12269c.60764.33514,1.23722.93779,1.81692.93074C35.30628,65.68691,35.8465,65.07884,36.40832,64.734Zm-.90786,3.557c1.46874-1.17863,2.65284-2.18261,3.90887-3.09185a1.21931,1.21931,0,0,1,1.15639.02746c1.20514,1.08795,2.32933,2.26672,3.35743,3.29056-1.31088,1.31258-2.49433,2.49759-3.86874,3.87389C38.78175,71.24532,37.23446,69.85227,35.50046,68.291Zm1.19394-6.28511q.20121-.10734.40249-.21477c.5064.4639,1.01271.92781,1.65988,1.52067-.39775.40786-.69193.70958-1.22365,1.25489C37.19717,63.5409,36.94573,62.77337,36.6944,62.00593Zm4.769,1.79328c-1.88113-1.82492-3.88279-3.52579-5.76033-5.35415-3.61221-3.51771-7.26286-7.00434-10.72216-10.66734-1.89406-2.00564-3.86352-3.91413-5.868-5.79674a2.35882,2.35882,0,0,1-.18326-3.51822c1.81586-1.91059,2.32677-1.86411,4.19214.08367,3.632,3.79269,7.34168,7.51234,10.95623,11.32121,2.24723,2.36806,4.27564,4.94758,6.58617,7.2485,3.6647,3.64946,7.471,7.15838,11.24235,10.70007,1.73738,1.63158,3.53372,3.20021,5.44706,4.927a5.20736,5.20736,0,0,0-4.77714,1.47913,1.15331,1.15331,0,0,1-1.09292-.14015c-1.22921-1.22586-2.35888-2.55025-3.57107-3.79423C45.78442,68.10393,43.65183,65.92234,41.46342,63.79921Zm-3.63493-18.541c1.614-1.45273,1.62851-1.44162,3.23441.22726.82643.85874,1.64285,1.727,2.37726,2.49977-1.33192,1.13449-2.583,2.16884-3.798,3.24331-1.29354,1.14385-1.53121,1.14705-2.72837-.2214-.73323-.83813-1.44065-1.69833-2.30686-2.72261C35.69514,47.25928,36.74154,46.23655,37.82849,45.25821ZM36.6424,43.61934c.08734-.699.17467-1.39814.28747-2.30148.55306.49756.959.86276,1.51314,1.36121-.51318.41809-.98259.80033-1.45188,1.18266ZM50.985,63.86474a1.27691,1.27691,0,0,1-1.20813-.03011c-1.42436-1.16-2.77653-2.41126-4.22928-3.69833,1.67092-1.3481,3.19557-2.62465,4.78578-3.81743a1.30486,1.30486,0,0,1,1.22789-.04567c1.35514,1.12143,2.62928,2.343,4.157,3.7362C54.02238,61.408,52.53808,62.67972,50.985,63.86474Zm5.34463-1.51656q.26256.09393.52506.188-.50881,1.67254-1.01762,3.34519-.22031-.089-.44049-.17784Q55.86313,64.02578,56.32966,62.34818Zm-2.53857,1.11233c-.16668.76944-.31516,1.34795-.41325,1.93828-.09691.58265-.14273,1.17717-.22217,1.86374C51.56842,65.44782,51.56842,65.44782,53.79109,63.46051Zm-7.389-8.03068c.02245-1.24878.04481-2.49756.07142-3.9797C47.84228,52.53681,47.854,53.867,46.40209,55.42983Zm.35179,1.453c-.61633.68245-1.259,1.39411-1.95412,2.16386a14.88721,14.88721,0,0,0-1.33824-1.16492c-.90273-.64-1.09323-1.19133.02526-1.78292C44.28752,58.12085,45.71471,55.747,46.75388,56.88282Zm-4.44036-.98593c-.39955-.47775-1.1947-1.05379-1.12853-1.41587a33.87909,33.87909,0,0,1,1.21373-4.07267l.23739.13542c.12384,1.25384.33239,2.51355.33268,3.7588A4.53056,4.53056,0,0,1,42.31352,55.89689Zm2.76211-4.3151c-.32852-.85625-.6241-1.62657-.91968-2.39689l.15105-.21655q.64024.605,1.2821,1.2115C45.40805,50.67427,45.25855,51.0823,45.07563,51.58179Zm-.09026,1.24085c-.00855,1.09036.762,2.27344-.29109,3.23928q-.27477-.05915-.54957-.11847.21873-1.59129.43745-3.18268Zm-.937.45272q-.263-.03678-.526-.07367.14052-1.17781.28112-2.35575l.45813.0803Q44.15509,52.10085,44.04835,53.27536ZM32.59879,42.79624c.78148,2.127.66854,2.487-.739,2.4096C32.094,44.442,32.31384,43.72535,32.59879,42.79624Zm-1.13841.95618-.56746-.20583q.40968-1.36743.81935-2.735.288.10173.57588.20326Q31.87427,42.3837,31.46038,43.75242Zm3.36988,2.11921c-.604.51817-.89769,1.53761-2.02832.58934C33.23776,45.69461,33.63633,45.03133,34.83026,45.87163Zm.21352-.91963q-.33531-.085-.67063-.17015.16542-.82176.33075-1.64353.32726.08318.65452.16645Q35.20121,44.12838,35.04378,44.952Zm-1.07226-1.9471-.55118-.12138q.20629-1.1289.41249-2.2579l.54332.12763Q34.17378,41.879,33.97152,43.0049Zm-2.43276-3.88648c-.564.44683-1.21228.79943-1.73378,1.288-1.41632,1.32681-1.50041,1.34381-2.9804-.10352-.73586-.71958-1.45507-1.45715-2.21015-2.15568-.51564-.47711-.47617-.82884.02882-1.20081,1.47734-1.08805,2.94239-2.192,4.50142-3.35628,1.31723,1.29706,2.61975,2.57959,4.11508,4.052C32.61652,38.1971,32.09437,38.67818,31.53876,39.11842Zm25.11881,29.412-.5452-.15817c-.82579-1.57812.9909-2.38091.80711-3.77061l.559.16176Q57.068,66.647,56.65757,68.53045Zm1.65331-1.563c.11929-1.12381.23858-2.24762.3681-3.46748.80763.537.6922,2.29145-.02613,3.54675ZM61.786,64.48927c-2.25143-2.29228-4.471-4.61558-6.71916-6.91107-.63351-.6468-1.31687-1.24545-1.98079-1.86242-.46-.42756-2.73536-2.59256-3.2599-3.08715-1.08719-1.0252-4.24087-4.22106-4.74625-4.79335a41.63083,41.63083,0,0,1-3.86061-4.32591c-1.05268-1.60325-2.69756-2.46995-3.88008-3.88583A57.45971,57.45971,0,0,0,33.18212,35.568c-1.06578-1.03944-2.10511-2.10583-3.27023-3.27457,1.47023-.85356,2.6787-1.5552,3.94-2.28752,7.35939,6.90723,14.80089,13.796,22.13261,20.79968,7.32453,6.99685,14.5393,14.10879,21.79131,21.15976,1.34875-.963.3489-1.55708-.04733-2.27048q.73686.41811,1.47378.836c-.23032,2.28285-2.794,3.53936-5.35292,2.64871a19.32487,19.32487,0,0,0-2.43322-.71738c-.82115-.16886-1.66053-.20648-2.58472-.31223C67.15923,69.06425,64.241,66.98868,61.786,64.48927ZM50.32562,24.54481l-.24048-.54289q1.31773-.65331,2.63539-1.30653l.15118.25745Q51.59872,23.74888,50.32562,24.54481Zm3.37532.30732q-.36809.79511-.73621,1.59c-.17058-.1036-.49946-.26518-.48812-.30211.16819-.54845.38149-1.08052.58416-1.61634Q53.3809,24.68785,53.70094,24.85213Zm6.16359,11.037c1.94511,1.93507,3.82649,3.93378,5.8214,5.99127a10.617,10.617,0,0,1-2.26058,2.09626,2.41285,2.41285,0,0,1-2.09324-.44025c-3.39265-2.99672-6.7184-6.07239-10.008-9.18377a17.913,17.913,0,0,0-2.31989-2.36536c-2.20437-1.50519-4.00018-3.64506-5.94573-5.54291a9.405,9.405,0,0,1-.85583-1.21251c1.1519-.09415,2.04715-.1625,2.94075-.24173.88415-.07836,1.76261-.22413,2.65183-.22618a1.87451,1.87451,0,0,1,1.189.4504Q54.455,30.52024,59.86453,35.8891Zm14.96563-5.68768c.585-1.25582,1.37657-2.50441.58364-4.1039,1.50719,1.61371,3.01448,3.22741,4.62809,4.95507-1.16792.71239-2.1882,1.33452-3.20835,1.95683q-.1665-.15135-.33295-.3024a16.15519,16.15519,0,0,0,.46009-2.55452,4.26493,4.26493,0,0,0-.58-1.47741,3.741,3.741,0,0,0-.76248,1.06926,23.824,23.824,0,0,0-.41433,2.618A1.56525,1.56525,0,0,1,74.83016,30.20142Zm-1.33359-8.13923c3.38361-1.07792,7.75984,1.62988,10.49752,6.408-1.03987.65107-1.9894,1.24558-2.936,1.83817C78.53991,27.56209,76.0392,24.835,73.49657,22.06219Zm.23364,10.03734c.29553,1.03924,1.82038.62808,2.05757,1.73623l-.433.45472q-1.00472-.87427-2.00947-1.74873Zm-1.46525-.454q.66666-2.26869,1.13409-3.8598C73.82327,29.95036,73.59462,31.10967,72.265,31.64553ZM72.98712,25.87A27.179,27.179,0,0,0,70.68,27.77259a4.1206,4.1206,0,0,0-.57383.83558c-1.32542-1.36358-2.7397-2.81874-4.14261-4.26205,1.07824-2.56668,3.44459-2.5792,5.57354-2.79324.64146.83205,1.09772,1.49294,1.62489,2.093C74.1642,24.78657,74.13072,25.05882,72.98712,25.87Zm-4.34519,3.34735c1.57909,2.07142,3.40873,3.96075,5.174,5.982-.76764.66944-1.60327,1.39834-2.63568,2.29874-1.84234-1.943-3.68052-3.84478-5.4546-5.80338-.20062-.22144-2.05627-2.09526-2.85724-3.04245-1.41229-1.67045-2.89139-3.286-4.33147-4.93387-.36256-.41487-.68337-.86542-1.16652-1.4822a3.21781,3.21781,0,0,1,.98193-.22869,36.74182,36.74182,0,0,1,3.701.64494,2.28163,2.28163,0,0,1,1.20422.9C64.706,25.76943,67.04563,27.12338,68.64193,29.21739Zm.67761,8.78322a21.8404,21.8404,0,0,1-1.499,2.36431q-.28026-.18381-.56055-.3678c.405-.99765.80993-1.99539,1.3344-3.28767C68.9443,37.307,69.41471,37.80585,69.31954,38.00061Zm-3.5341-4.40011c-2.24483.89828-.90308,2.99057-1.17142,4.53447q-.22857.03889-.4569.078c-.2093-.54691-.6394-1.13233-.58568-1.63315.15049-1.40276.50092-2.77042.78249-4.20347C64.76268,32.72594,65.26631,33.15662,65.78544,33.6005Zm-6.91686-7.50742c-.66779.39433-1.14781.6778-1.74387,1.02967-.0461-1.18082.31839-2.30008-1.10754-2.79151-.15384-.053-.18329-.545-.27048-.83336q.1848-.13049.3696-.26087C56.96107,24.11363,57.80584,24.99024,58.86858,26.09308Zm.63836.70089c1.10751,1.24053,2.19218,2.385,3.17125,3.61051a1.252,1.252,0,0,1-.03238,1.19736A16.10191,16.10191,0,0,1,60.52824,33.717a.9674.9674,0,0,1-.92142-.068c-1.20574-1.02977-2.35993-2.121-3.56726-3.22472C57.19949,29.2098,58.32068,28.03607,59.50694,26.794Zm-10.32,15.9611c-1.34455-1.30762-2.65984-2.58664-4.04037-3.92919,1.42408-1.36668,2.74043-2.65207,4.09662-3.89458a.80258.80258,0,0,1,.75331.08745c1.1028.96284,2.16073,1.97755,3.24646,2.96067.53028.48015.41231.8373-.03741,1.22689C51.90936,40.32962,50.63291,41.47521,49.1869,42.75507Zm2.45267-.05361.36625,2.42373C50.25388,44.21737,50.23269,43.89716,51.63957,42.70146Zm-8.2435-7.49715c.04264-.42724.39574-.80243.7364-1.42183a9.557,9.557,0,0,1,.5348,1.52882,2.14637,2.14637,0,0,1-.16628,1.04325c-.03181.08267-.55213.09175-.617-.007A2.13275,2.13275,0,0,1,43.39607,35.20431Zm-.34561-1.16224c-.68086-1.18737-.50429-1.75411.96632-2.42514C43.62086,32.6104,43.34892,33.29293,43.05046,34.04207Zm1.72291-3.30172.52976-.50452c.30809.82527,1.71776,1.01822,1.212,2.206C45.8742,31.81569,45.34925,31.30284,44.77337,30.74035Zm8.59816,12.852c.09072-.8495.2409-1.69383.25649-2.54988.01649-.90441.46967-1.26526,1.52159-1.47862-1.11927,1.83624-.6378,3.67425-.57528,5.4679a3.56621,3.56621,0,0,1-.49266,1.28535,4.82233,4.82233,0,0,1-.8278-1.273A4.26121,4.26121,0,0,1,53.37153,43.59232Zm3.04484-2.23766.493-.068c.13559.38532.48835.88293.36986,1.13695a6.55836,6.55836,0,0,0-.53381,3.92493c.03847.241-.16976.50442-.26405.75744q-.23365-.0259-.46728-.05161C55.09792,45.01844,57.05483,43.35462,56.41637,41.35466Zm2.39616,1.76079c.74662.73513,1.29112,1.27116,1.83563,1.80729l-.13679.19571-.91322-.5056c-.36123.96092-.70245,1.86847-1.04356,2.77611l-.60858-.1763C58.21537,45.939,58.48476,44.66539,58.81253,43.11545Zm-3.16849,1.022q-.30439-.04845-.60872-.097.14139-1.409.2827-2.81779l.57746.09267Q55.76981,42.72636,55.644,44.13742Zm-1.08842,2.896c.03476-.07031.41252-.06745.43981-.01243.54861,1.103,1.38523,1.3458,2.55006.6971l-.00044.49028c-.38465.32761-.7693.65522-1.31617,1.12091-.59536-.5548-1.20688-1.09106-1.76516-1.67751C54.36966,47.553,54.46564,47.216,54.55562,47.03346Zm3.42421,2.83214c.96416-.90741,1.9176-1.82624,2.98947-2.84938-.77856,3.07935,1.81838,4.4349,3.3982,6.46642a12.50715,12.50715,0,0,1-1.63011,1.2,1.13774,1.13774,0,0,1-1.00668-.172c-1.26562-1.1018-2.46466-2.28075-3.71433-3.40185C57.48857,50.63522,57.54732,50.27257,57.97983,49.8656ZM43.8979,29.10983c-1.55953,1.32789-3.04773,2.59516-4.65224,3.96135-1.10281-1.00042-2.26525-2.055-3.57629-3.24435,1.53537-1.13961,2.83535-2.08293,4.10927-3.05884a1.19844,1.19844,0,0,1,1.91875.20141C42.36419,27.74135,43.16168,28.40337,43.8979,29.10983ZM41.71675,33.3803l.29747,1.96852C40.56356,34.76291,40.50648,34.47131,41.71675,33.3803Zm22.2695,16.97093c.09607-.49947.22086-.99145.34116-1.48464l.61018.21217c-.172.47921-.34072.96-.5345,1.42913A2.2312,2.2312,0,0,1,63.98625,50.35123ZM78.83538,69.08776q.69792-1.39971,1.39605-2.79942l.19753.08714q-.49509,1.47991-.99019,2.95972Q79.13706,69.21143,78.83538,69.08776ZM74.57648,60.031c1.18289,1.06429,2.26783,2.23771,3.40488,3.35465.73768.72454.64936,1.26626-.139,1.77668a9.5775,9.5775,0,0,0-1.608,1.25552,7.2025,7.2025,0,0,0-.83767,1.29918,13.42239,13.42239,0,0,1-4.95828-5.11429c1.00819-.91121,1.9211-1.81217,2.92971-2.59436A1.26174,1.26174,0,0,1,74.57648,60.031Zm-6.00522-4.11523c.86192.56095,1.53889,1.00147,2.25078,1.4647-.327.75255-.62528,1.43872-.92356,2.125l-.10466-.03955q.18238-1.0998.36467-2.19959l-.637-.24008c-.48637.9386-.97263,1.87728-1.51671,2.92712C67.13944,58.32955,68.31661,57.30754,68.57126,55.91574Zm-1.12333-.68053c-.39045,1.02449-.7444,1.95334-1.09834,2.8822l-.30531-.08128c.11419-1.0812.22837-2.16249.35209-3.33466C66.64922,54.82982,67.05312,55.03475,67.44793,55.23521Zm-1.215-4.96442c.24712-1.50184.49268-2.9945.73825-4.48717l.4494.119C66.9936,47.34645,68.44469,49.37659,66.23289,50.27079Zm3.18622-3.42623c-.04145-.90795-.08567-1.87439-.1298-2.84084C69.81173,44.98715,70.67608,45.981,69.41911,46.84456Zm1.90677-1.74c.74619-1.22758-.29147-3.08032,1.54987-3.84687C72.63434,42.66013,73.71915,44.53165,71.32588,45.10458Zm3.51357-2.45352c-.06349-1.10169-.11277-1.95854-.16213-2.81528l.47655.05145C75.17366,40.75671,75.95083,41.74577,74.83945,42.65106Zm2.1294-1.022c.41442-1.54542.80083-2.98694,1.18735-4.42837C79.57082,39.9959,78.75222,40.55915,76.96885,41.629Zm4.05135-3.64272c.14384-1.04939.28316-2.06526.42249-3.081l.34054.08853C81.9169,36.10039,82.33576,37.29431,81.0202,37.98631Zm2.69514-1.66838a11.091,11.091,0,0,0-.06471-2.80229c.42694-.19276.85379-.38543,1.29741-.58556C85.43837,35.0416,85.43837,35.0416,83.71534,36.31793Zm3.74994-6.73255c-2.50159,1.59453-5.1587,2.98321-7.52927,4.74319C74.99,38.00074,70.16877,41.83543,65.35115,45.67a15.07378,15.07378,0,0,0-1.98,2.42851,2.00308,2.00308,0,0,1-.873.65681c-.082-1.44779.859-2.29076,1.65312-3.1642,3.50028-3.84949,7.75677-6.80135,12.04488-9.7129,3.29344-2.23645,6.56139-4.50828,9.86331-6.73263a17.64644,17.64644,0,0,1,2.02613-1.02519l.40944.37759A6.04383,6.04383,0,0,1,87.46528,29.58538Zm-2.96867-4.21616a1.24253,1.24253,0,0,1-.7215.41623q.07721-1.35119.15431-2.703c2.3401.1354,4.05162,2.034,3.178,3.66887-.15527-.291-.24929-.46721-.40257-.75469-.43584.37911-.8398.73043-1.24364,1.08184l-.24985-.1046a4.66336,4.66336,0,0,0,.281-.98987,10.08785,10.08785,0,0,0-.08034-1.35557C85.10573,24.87405,84.79018,25.10945,84.49661,25.36922Zm4.06617-.89163c-1.005-2.19506-2.77262-2.9272-4.71043-3.36667-.28246-.06406-.63208-.19591-.85045-.098-2.10419.94354-4.14391-.21115-6.21631-.54008a21.63531,21.63531,0,0,0-8.39436-.10209,18.29414,18.29414,0,0,1-8.91833.20258,13.19522,13.19522,0,0,0-9.75083,1.602,9.95608,9.95608,0,0,1-4.47778,1.22853,44.37763,44.37763,0,0,0-8.75211,1.30512c-1.23641.32837-2.26077,1.64586-3.1038,2.73548a10.88263,10.88263,0,0,1-4.865,3.37065c-2.72887,1.09237-5.60436,1.94914-7.76094,4.09867a20.59992,20.59992,0,0,1-2.97459,2.03008,2.90311,2.90311,0,0,0-1.14038,4.05055c.34713.78784.27808,1.305-.39808,1.66526-2.11565,1.12724-3.18525,3.23011-4.59021,4.99774-1.80585,2.27194-1.32767,5.32569,1.11713,7.24392a3.18151,3.18151,0,0,1,1.32646,3.40019c-.24667,1.44721-.38043,2.92376-.5035,4.39667-.178,2.132,2.32475,4.9471,4.89335,5.09245,2.49136.14094,4.24625.88769,5.61372,3.22792,1.18966,2.036,3.0237,2.54018,4.97428,1.44679,1.535-.86052,2.79318-.22219,4.14316.27152a5.10619,5.10619,0,0,1,2.04709,1.26691c1.642,1.87427,3.6251,1.68907,5.77143.47169,1.07787-.61129,2.02789-1.51322,3.45133-1.12427a7.66505,7.66505,0,0,1,2.44718.94109c2.58851,1.85121,5.27366,2.10182,7.80878.57449,1.60722-.96833,3.22473-.49511,4.84467.31136,2.07229,1.03174,4.15045,1.43111,6.23239.46332.21969-.10215.5149-.17182.62564-.3535.975-1.599,2.70566-1.46091,4.28745-1.57485a4.40678,4.40678,0,0,1,1.76571.46367,6.5201,6.5201,0,0,0,4.36426.58591,13.25259,13.25259,0,0,0,5.02958-2.27,2.88308,2.88308,0,0,1,2.02508-.392,7.17536,7.17536,0,0,0,4.88358-.602c.66639-.399,1.71929-.19817,2.59227-.26952.35314,2.59842-.87619,3.83322-3.13125,3.792a13.94007,13.94007,0,0,0-6.42782,1.07639,5.72292,5.72292,0,0,1-4.70585.204,2.611,2.611,0,0,0-1.62142.22774c-1.15132.41771-2.27475.90476-3.38949,1.40339-.673.301-1.28563.72437-1.96581,1.00757a4.863,4.863,0,0,1-3.51831.092c-3.0663-1.00725-5.40164.56965-7.71005,1.93583a5.51641,5.51641,0,0,1-6.32228-.22128,6.52443,6.52443,0,0,0-7.30544-.29909A23.37505,23.37505,0,0,1,42.39694,81.947c-1.88249.78093-3.10569.44919-4.66923-1.06686-1.64649-1.59642-3.34329-3.30313-5.70513-3.39406a21.993,21.993,0,0,0-5.48089.596c-2.2076.48192-4.17548.15015-5.34825-1.82129-1.33457-2.24347-3.45561-3.07223-5.47645-4.22562a16.575,16.575,0,0,1-3.34747-2.33528,3.66393,3.66393,0,0,1-.771-4.087c1.06916-3.07919,1.0001-3.26693-1.52127-5.68479-.58928-.56512-1.134-1.17993-1.67018-1.79652a2.78823,2.78823,0,0,1-.55524-3.0382q.814-2.02857,1.6983-4.025a2.37658,2.37658,0,0,0-.61156-3.12871c-1.59786-1.437-1.84356-3.08045-.46539-4.5989a16.6358,16.6358,0,0,1,4.02554-2.97665c1.71474-.9966,1.91976-1.18156,1.58005-3.19532-.288-1.70794.53168-3.08012,2.6605-4.084,1.68092-.79258,3.46151-1.39412,5.17158-2.1342a2.79615,2.79615,0,0,0,2.00155-2.48171c.03624-.50708.62289-1.02736,1.09129-1.367A8.4022,8.4022,0,0,1,30.342,25.41256c2.07906.063,3.867-.471,5.04815-2.33806,1.70987-2.7026,4.67824-2.95111,7.94046-2.05833a7.06888,7.06888,0,0,1,1.20931.388,1.22629,1.22629,0,0,0,1.82307-.62528,4.26392,4.26392,0,0,1,4.03791-2.44886A8.98617,8.98617,0,0,1,53.669,19.57147a1.06168,1.06168,0,0,0,1.59073-.30786c.5948-.85726,1.13833-1.75282,1.67943-2.64768,1.089-1.801,2.98692-2.04486,5.33285-.79775,1.38728.73736,2.84013,1.34935,4.28873,1.94625,1.73614.71523,3.09727.12092,4.4384-.90927a11.956,11.956,0,0,1,3.38231-1.7635c1.29692-.44387,3.33068.71869,4.31454,2.36877a4.17634,4.17634,0,0,0,4.14248,2.18483,24.28869,24.28869,0,0,1,2.49231.04113A3.8165,3.8165,0,0,1,88.56278,24.47759Z"/></svg>