<svg role="img" xmlns="http://www.w3.org/2000/svg" data-name="Слой 1" viewBox="0 0 100 125" x="0px" y="0px"><defs><style>.cls-1{fill:none;}</style></defs><title>{{ include.title | default: "Pie Slice created by Tatyana from the Noun Project" }}</title><path class="cls-1" d="M51.77778,56.08361c-.42667.96117-.84195,1.89661-1.25722,2.8321C52.29,58.01617,52.508,57.373,51.77778,56.08361Z"/><path class="cls-1" d="M34.16529,61.81519l-3.01371-4.62161-4.95711,4.62161Z"/><path class="cls-1" d="M57.84166,59.202c.05224-.04046.05066-.15042.066-.201-.48068-.247-.93275-.47932-1.37333-.70576l-1.29586,2.026.36985.58432C56.354,60.33932,57.10147,59.77539,57.84166,59.202Z"/><path class="cls-1" d="M53.279,43.66587c-1.839-2.09986-1.93579-2.1804-4.25581-.61106-3.367,2.2776-6.62056,4.72294-9.96722,7.1289.82191,1.35281,1.62791,2.59317,2.34423,3.88329.67481,1.21545,1.43,1.40581,2.55779.53762,2.53045-1.94791,5.10115-3.84374,7.66372-5.74965,1.13248-.84228,2.285-1.65768,3.52449-2.55485A30.75115,30.75115,0,0,0,53.279,43.66587Z"/><path class="cls-1" d="M35.30457,42.16444l-2.06641,1.32642c.67849.59037,1.13729.98954,1.69808,1.47749Z"/><path class="cls-1" d="M37.32287,62.01393c1.72294-.11465,3.83475-.2552,5.96559-.397-.07391-2.04309-1.35693-3.31721-2.46383-4.7691-2.734-3.586-5.30392-7.2972-7.93422-10.96207-.62739-.87415-1.33569-1.38525-2.3792-.62206-1.42486,1.04215-2.84558,2.09-4.42047,3.24745,2.102,2.305,4.08859,4.33437,5.89886,6.51048C33.79961,57.19744,35.43329,59.52,37.32287,62.01393Z"/><path class="cls-1" d="M60.03153,29.71409a13.85574,13.85574,0,0,1,.41562,1.33058l.4538.11864c.53477-.96043,1.06955-1.92082,1.69058-3.03618l-3.24052.42223A10.8125,10.8125,0,0,1,60.03153,29.71409Z"/><path class="cls-1" d="M37.81951,48.22607c.163.13494.78655-.09312,1.03835-.32623.16993-.15734.17883-.84074.05625-.90593-.92945-.494-1.90917-.89349-2.8732-1.32243l-.36417.4371A29.29143,29.29143,0,0,0,37.81951,48.22607Z"/><path class="cls-1" d="M39.23391,41.33874c.15809-.53539.30319-1.07455.52985-1.88268a2.32051,2.32051,0,0,0-.99106,3.3642C38.9286,42.32144,39.08825,41.83212,39.23391,41.33874Z"/><path class="cls-1" d="M45.50854,35.57c-.70964.39365-1.41927.78735-1.8531,1.028v5.69384c.88923-2.41034,1.6353-4.43261,2.38137-6.45488Z"/><path class="cls-1" d="M59.75647,54.256c.161,1.02922.322,2.05844.50867,3.25145-.17291.1032-.54591.32574-1.17181.69922C62.28309,57.9441,62.25553,56.55709,59.75647,54.256Z"/><path class="cls-1" d="M64.35386,40.54946c3.9218-2.84788,7.67622-5.57424,11.60915-8.43024-1.05195-.66213-1.92777-1.25241-2.84017-1.77929a4.34651,4.34651,0,0,0-5.1033.102c-2.40276,1.69723-4.88878,3.27657-7.50766,5.01847C61.80629,37.175,63.02788,38.79305,64.35386,40.54946Z"/><path class="cls-1" d="M80.54857,46.39916c-.45139.23569-.67415.90927-1.002,1.38152l.37625.35253a9.476,9.476,0,0,0,2.378-1.1304c1.15366-1.01208,2.99567-1.75308,2.3699-3.8344-.37918-1.26127-.96766-2.45959-1.46213-3.68613a1.87535,1.87535,0,0,0-.02674,1.22409A5.529,5.529,0,0,1,80.54857,46.39916Z"/><path class="cls-1" d="M64.44747,28.02458l.652,1.525c.77516-.35038,1.55034-.70072,2.71582-1.22747C66.464,28.20275,65.62964,28.12905,64.44747,28.02458Z"/><path class="cls-1" d="M51.33676,38.40518c2.12115,3.1009,5.05435,5.5956,7.07168,8.7918,1.674,2.65227,3.13562,5.43763,4.74555,8.13164a26.94418,26.94418,0,0,0,2.35485,3.36179c.19766.23867.91289.02437,1.38578.0655.32765.02847,3.337.13012,6.53647-.02977-1.86578-2.8464-3.64459-5.75013-5.43619-8.64489-2.01054-3.2485-3.82322-6.63892-6.06022-9.72219A105.57682,105.57682,0,0,0,54.754,31.96034a1.85684,1.85684,0,0,0-1.68241-.3207c-1.82285.78371-3.57144,1.74015-5.42029,2.6695C48.68506,36.084,50.31872,36.91686,51.33676,38.40518Z"/><path class="cls-1" d="M75.75084,58.5595c2.707-.26366,5.10917-.78123,5.61892-1.76746,1.44351-2.79295,2.52681-5.772,3.76651-8.67018l-.52292-.4474c-2.66316,1.56837-5.33316,3.12531-7.98772,4.70811-3.17247,1.89162-3.16679,1.90122-1.433,5.01448C75.21006,57.42833,75.51278,58.0541,75.75084,58.5595Z"/><path class="cls-1" d="M76.80722,47.63075c-.44628,1.15929-.80285,2.08557-1.29784,3.37148.84066-.61,1.35018-.97977,1.83605-1.33234C77.1711,49.00942,77.01829,48.4305,76.80722,47.63075Z"/><path class="cls-1" d="M75.22369,35.61179l.21945.51334h3.46813l1.06725-.78392-2.05912-2.184C76.86318,34.119,76.04344,34.8654,75.22369,35.61179Z"/><path class="cls-1" d="M78.64932,42.84293q-.3785.06945-.757.139.19538,1.61577.39078,3.23149l.59115-.05782Z"/><path class="cls-1" d="M71.39585,49.25441c-.39506.17953-.76819.34911-1.19551.54328L72.252,52.96728c.81525-.47857,1.54028-.90418,2.28236-1.33983-.88619-.10452-1.77707.04428-2.23878-.33263C71.794,50.88539,71.69151,49.987,71.39585,49.25441Z"/><path class="cls-1" d="M55.2817,52.96557c-.53933,2.0099-.985,3.67079-1.43067,5.33163C55.847,57.01238,56.14724,55.2963,55.2817,52.96557Z"/><path class="cls-1" d="M58.47519,69.47119a7.855,7.855,0,0,0,.483,1.41555c1.33733-.91615,3.49094-.82715,3.7632-3.429-1.03959-.19628-2.18976-.73732-3.19272-.5378a66.162,66.162,0,0,0-6.92835,1.99083c-.34682.10952-.595.53162-.88885.809.42938.17335.95422.59751,1.27161.47664,1.37484-.52338,2.677-1.234,4.03191-1.81538a7.99924,7.99924,0,0,1,1.53076-.33407A6.88649,6.88649,0,0,0,58.47519,69.47119Z"/><path class="cls-1" d="M83.28711,65.45906a2.36157,2.36157,0,0,1-.36842.74386c-1.28727,1.176-2.5602,3.223-3.91748,3.2866-2.72612.12767-5.30431.24187-7.75236,1.54869-1.49151.79629-2.76781.63873-3.448-1.15166-1.27194.30575-2.46055.58-3.643.87875-1.23623.31233-2.46589.65078-3.69968.973-.89232.23306-1.89753.8151-2.64737.582-.68434-.21276-1.093-1.31239-1.70477-2.13025-.54681.332-1.19018.72259-2.0459,1.24215,3.65908,2.13069,7.10387,1.21068,10.55637.26617.54913-.15029,1.28847-.457,1.67-.23258,2.94388,1.73129,5.58273.52837,8.29674-.60756a9.70018,9.70018,0,0,1,2.478-.29592c1.32653-.16537,2.64915-.36231,3.97634-.5215.31456-.03772,1.73835-.22565,2.72068-.33985.0991-1.40172.02659-2.81553.02659-4.2242Z"/><path class="cls-1" d="M33.23722,72.01627l.06692.39435c.79561.12232,1.59122.24468,2.78131.42767-.4855-.89177-.71724-1.31743-1.032-1.89552C34.3626,71.35115,33.7999,71.68369,33.23722,72.01627Z"/><path class="cls-1" d="M44.293,68.98083c-.96057-.1979-1.92111-.39584-2.99313-.61671q-.23912,1.34864-.47662,2.68839l.43348.46445Q42.8638,70.4845,44.47093,69.452Z"/><path class="cls-1" d="M49.608,69.59141c-1.21249.57923-2.8424-.759-3.8472.77428l.1837.6855q1.89072-.4971,3.78139-.99414Z"/><path class="cls-1" d="M74.82344,66.62379l-.28-.63324c-1.76191.51579-3.52381,1.03158-5.2563,1.53874l.40143,2.1199A5.93845,5.93845,0,0,0,74.82344,66.62379Z"/><path class="cls-1" d="M28.53439,54.54478c-.27956.7585-.57345,1.55592-.94518,2.56449C29.52544,56.32982,29.68415,55.74125,28.53439,54.54478Z"/><path class="cls-1" d="M37.64877,70.7158l2.25784-3.07612C36.90656,67.47063,36.65927,67.79058,37.64877,70.7158Z"/><path class="cls-1" d="M92.65972,42.49492c1.02956-.99051,1.30614-3.46732.28505-4.4865a28.13572,28.13572,0,0,0-4.38987-3.429c-.91205-.60387-1.78434-1.03128-1.28573-2.32929.96641-2.51566.68846-3.894-1.08349-5.37937-1.70626-1.43036-4.8102-1.87636-6.45015-1.027a6.34384,6.34384,0,0,1-1.754.34569,15.277,15.277,0,0,1-.04472-2.13134c.0662-.60273.53175-1.20279.47651-1.77053a5.89613,5.89613,0,0,0-3.70376-5.13281c-3.10885-1.41848-8.16363.37265-9.4132,3.41909a2.54553,2.54553,0,0,1-1.46145,1.24724c-.23095.07445-.86275-.7225-1.13906-1.21922-2.05065-3.68591-4.815-4.66445-8.13926-1.98943-3.02586,2.43494-3.08281,5.92892-1.59626,10.16438,4.47172-1.75738,9.04842-3.24829,13.91061-2.28409a31.32142,31.32142,0,0,1,7.48767,2.41965A22.09,22.09,0,0,1,83.377,36.43285c1.96755,2.94412,4.14125,5.87153,3.48139,9.678a45.03041,45.03041,0,0,1-2.22508,9.0548c-1.43573,3.58385-3.9954,6.56663-8.14763,6.87054-2.90552.21263-5.87467-.43754-8.81479-.70909a15.23538,15.23538,0,0,0-2.63028-.25459c-5.1471.44192-10.28834.95224-15.43077,1.44777q-1.77081.17073-3.53652.39313c-5.07366.63688-10.14882,1.1311-15.25839.3748-.33354-.04932-.71527.18895-1.03984.12288-3.20425-.652-5.9997,1.5067-9.34168,1.05347-3.76572-.51071-7.68954.08588-11.53782.31469-.48519.02889-1.332.75622-1.32494,1.14759.0368,2.0434.29533,4.08276.53036,6.72687a16.72281,16.72281,0,0,1,1.63914-2.02525c2.056-1.77561,4.21223-3.34417,7.18677-2.89444,1.69815.25678,3.41482.39575,5.10823.67752,1.8622.3097,3.707,1.025,5.55978,1.02628a16.5,16.5,0,0,0,9.86731-3.5863,2.57424,2.57424,0,0,1,2.15552-.21877c4.99,2.14678,9.98831,3.163,15.23017.851,2.23827-.98726,4.63095-1.98609,7.05007-1.02549,3.43834,1.36535,6.64513.79414,9.82307-.593a5.16844,5.16844,0,0,1,3.91748-.28769c1.541.48458,3.26022,1.34492,5.003-.1915-.52929-.39426,2.25932-2.00569,3.65248-2.05755a2.87437,2.87437,0,0,0,2.82676-2.254,2.96031,2.96031,0,0,1,1.70746-1.68819c2.71224-.82246,3.33838-1.95168,2.22464-4.55274-.47822-1.1169.03119-2.07308,1.14062-1.79232,1.29917.32877,1.57429-.48887,1.65529-1.22374.23942-2.17168.50536-4.40978-1.37324-6.1376C91.61022,43.88407,91.90784,43.21834,92.65972,42.49492Z"/><path class="cls-1" d="M16.42074,71.8918l1.81218-1.39656c.49277.68914.98555,1.37828,1.64615,2.30219A6.45847,6.45847,0,0,1,21.39159,71.455a1.93358,1.93358,0,0,1,1.71382.06146c1.57005,1.60148,1.52217,1.64839,3.53543-.15682-3.88151-1.81739-7.98374-1.4436-12.179-2.02516C15.30018,70.42891,15.89192,71.20143,16.42074,71.8918Z"/><path class="cls-1" d="M18.19554,54.46582c-2.23726.85547-2.61737,1.95085-1.65849,4.61337Z"/><path class="cls-1" d="M9.93959,60.46664l-2.9225,2.48444h3.70976Z"/><path class="cls-1" d="M79.193,72.49773a18.69977,18.69977,0,0,0-7.23135,1.06539,6.46158,6.46158,0,0,1-4.26072.28716c-1.80056-.66-3.31979-.03748-4.98287.05278a48.80843,48.80843,0,0,1-8.26907-.19895,4.17893,4.17893,0,0,0-2.599.22728c-2.97772,1.42142-5.89225,2.90137-9.48355,1.91314a63.44353,63.44353,0,0,0-8.77643-1.39647,2.26723,2.26723,0,0,0-1.51173.65871c-2.49589,2.2452-5.33987,3.766-8.73281,3.16166a37.14542,37.14542,0,0,1-6.15242-2.202c-.87227-.3239-1.88448-1.11563-2.58488-.89761a39.5937,39.5937,0,0,0-5.80945,2.56967c-.30711.15344-.44006.78844-.52314,1.22558a14.91777,14.91777,0,0,1-.20375,1.94546c-.50418,1.48986.04226,1.92007,1.49974,1.93791,2.67353.03275,5.34611.19119,8.0176.32653,1.78829.09058,3.58269.40418,5.35921.3154,4.19-.20948,8.374-.56411,12.55469-.92624,5.13732-.445,10.27793-.878,15.4001-1.46456,4.47656-.51272,8.93866-1.17341,13.39061-1.87382,5.07055-.79778,10.11563-1.75711,15.18587-2.557,2.58013-.40706,3.89063-1.65785,3.729-4.387a2.36069,2.36069,0,0,1,.04807-.58473A17.64159,17.64159,0,0,1,79.193,72.49773Z"/><path class="cls-1" d="M17.039,62.84845c1.90964-.16362,3.55791-.30483,5.56326-.4766-.58031-.72185-.82735-1.02918-1.204-1.49771-1.27716,1.62673-2.31857,1.46377-3.224-.30206C17.7746,61.37345,17.47323,61.97771,17.039,62.84845Z"/><path class="cls-1" d="M21.7781,52.92269c.149-.49834.77816-.85319,1.18671-1.27394.22366.5727.67139,1.16325.62739,1.71459-.11486,1.43905-.445,2.861-.68927,4.28965l.52426.07177c.27216-1.49091.5314-2.98428.82182-4.47163.14948-.76565-.68879-2.00184.7412-2.09759.283-.01894.6695,1.453.99886,2.24134a1.93277,1.93277,0,0,1,.07615.4008l.51468-.08106a7.1924,7.1924,0,0,0-.59968-2.50527c-.4003-.586-1.58925-1.29867-1.99614-1.09375-1.39841.70413-3.20679,1.531-3.74074,2.78664-.72835,1.71292-.4303,3.86224-.5723,5.82449l.61163.09951C20.76817,56.85587,21.19709,54.86653,21.7781,52.92269Z"/><path class="cls-1" d="M10.90259,72.08545c-1.37037.737-3.43843.97705-2.48755,3.45311C9.3131,74.29189,10.10784,73.18867,10.90259,72.08545Z"/><path class="cls-1" d="M43.12524,74.28054c3.15247,1.0069,5.37952-.75241,7.85355-1.88838l-.06173-.49952c-.72079.04318-1.44354.06585-2.162.134-1.40332.13314-2.89208.63951-4.17468.31539a2.39711,2.39711,0,0,0-2.02347.11973c-1.41813.78134-2.70911.89489-3.42348-.99006-.95012.43012-1.79848.81413-3.11983,1.41225A63.72068,63.72068,0,0,1,43.12524,74.28054Z"/><path class="cls-1" d="M13.15331,72.10171a8.66851,8.66851,0,0,0-1.39012,1.48035l.20172.30338a7.20353,7.20353,0,0,0,1.96084-.525c.33032-.19418.38458-.858.563-1.31055C14.03509,72.05467,13.466,71.88939,13.15331,72.10171Z"/><path class="cls-1" d="M21.76532,73.46715c-.67069.529-1.36158,1.074-2.17631,1.71665,5.53378,2.39373,8.85138,1.39634,10.64723-1.26833-.757-.4175-1.531-.84438-2.38008-1.31265C24.53543,75.28279,24.5002,75.2888,21.76532,73.46715Z"/><path d="M95.03453,44.80092a2.52349,2.52349,0,0,1-.08-1.667c1.10408-4.53687.99792-6.387-4.02327-9.57665a2.04879,2.04879,0,0,1-1.219-2.21166c.36329-4.57685-2.56276-7.38186-7.21169-7.704a2.26859,2.26859,0,0,1-2.46634-2.07452c-.3411-1.34711-.63773-2.94237-1.53273-3.87057a9.46789,9.46789,0,0,0-13.213-.21974c-1.382,1.34672-1.86446.76565-2.88789-.16642-1.45009-1.32072-3.02629-2.27562-5.26632-1.73953A8.6111,8.6111,0,0,0,50.99655,27.025c1.05585,2.83645.64545,3.29248-1.83086,4.79076-5.22224,3.15959-10.51072,6.22392-15.59263,9.5976-5.8767,3.90134-11.6014,8.03676-17.31388,12.17853-3.94139,2.85762-7.76738,5.8764-11.59238,8.88991-.40682.32053-.79578,1.4305-.62594,1.59749,1.68438,1.65593,1.67125,3.80788,1.70957,5.8497.07937,4.23024,1.07523,8.49315-.42294,12.69551-.37683,1.05693-.3041,2.14042,1.40711,2.1633,4.41488.059,8.83027.36546,13.24184.30575,4.5685-.06181,9.13571-.3929,13.69809-.689,4.97965-.32311,9.95971-.6717,14.92688-1.1429,3.17328-.30106,6.32432-.83886,9.48392-1.28069q6.68463-.93481,13.36674-1.88737a95.40828,95.40828,0,0,0,9.59951-1.53383c1.23431-.30908,3.22832-.22561,3.52692-2.304.21449-1.493.48243-2.97866.67772-4.474.34378-2.6324.65025-5.26963.97233-7.90484-.31416-.17181-.167-.26156-.00966-.32684,1.39171-.57765,3.03112-.90514,2.80546-3.02579-.01606-.151.56459-.42114.90123-.54525,3.04387-1.1223,4.33048-2.363,3.64327-5.5098A8.73988,8.73988,0,0,0,95.132,52.50879C96.12188,49.95547,96.48224,47.37388,95.03453,44.80092Zm-41.963-13.16128a1.85684,1.85684,0,0,1,1.68241.3207,105.57682,105.57682,0,0,1,7.18072,8.39872c2.237,3.08327,4.04968,6.47369,6.06022,9.72219,1.7916,2.89476,3.57041,5.79849,5.43619,8.64489-3.19949.15989-6.20882.05824-6.53647.02977-.47289-.04113-1.18812.17317-1.38578-.0655A26.94418,26.94418,0,0,1,63.154,55.32862c-1.60993-2.694-3.07154-5.47937-4.74555-8.13164-2.01733-3.1962-4.95053-5.6909-7.07168-8.7918-1.018-1.48832-2.6517-2.32122-3.6855-4.096C49.50011,33.37979,51.2487,32.42335,53.07155,31.63964Zm14.948-1.1977a4.34651,4.34651,0,0,1,5.1033-.102c.9124.52688,1.78822,1.11716,2.84017,1.77929-3.93293,2.856-7.68735,5.58236-11.60915,8.43024-1.326-1.75641-2.54757-3.37451-3.842-5.089C63.13076,33.71851,65.61678,32.13917,68.01954,30.44194Zm-3.57207-2.41736c1.18217.10447,2.0165.17817,3.36782.29755-1.16548.52675-1.94066.87709-2.71582,1.22747Zm18.7344,12.68179a1.87535,1.87535,0,0,1,.02674-1.22409c.49447,1.22654,1.083,2.42486,1.46213,3.68613.62577,2.08132-1.21624,2.82232-2.3699,3.8344a9.476,9.476,0,0,1-2.378,1.1304l-.37625-.35253c.32787-.47225.55063-1.14583,1.002-1.38152A5.529,5.529,0,0,0,83.18187,40.70637Zm-6.55624,11.6762c2.65456-1.5828,5.32456-3.13974,7.98772-4.70811l.52292.4474c-1.2397,2.89821-2.323,5.87723-3.76651,8.67018-.50975.98623-2.912,1.5038-5.61892,1.76746-.23806-.5054-.54078-1.13117-.55821-1.16245C73.45884,54.28379,73.45316,54.27419,76.62563,52.38257Zm-4.37361.58471-2.05168-3.16959c.42732-.19417.80045-.36375,1.19551-.54328.29566.73259.39812,1.631.89975,2.04041.46171.37691,1.35259.22811,2.23878.33263C73.7923,52.0631,73.06727,52.48871,72.252,52.96728Zm3.25736-1.96505c.495-1.28591.85156-2.21219,1.29784-3.37148.21107.79975.36388,1.37867.53821,2.03914C76.85956,50.02246,76.35,50.39222,75.50938,51.00223Zm2.38291-8.02032q.37852-.06951.757-.139l.2249,3.31265-.59115.05782Q78.08765,44.59771,77.89229,42.98191Zm1.019-6.85678H75.44314l-.21945-.51334c.81975-.74639,1.63949-1.49279,2.69571-2.45454l2.05912,2.184ZM60.901,31.16331l-.4538-.11864a13.85574,13.85574,0,0,0-.41562-1.33058,10.8125,10.8125,0,0,0-.68052-1.16473l3.24052-.42223C61.9705,29.24249,61.43572,30.20288,60.901,31.16331ZM59.75647,54.256c2.49906,2.30114,2.52662,3.68815-.66314,3.95067.6259-.37348.9989-.596,1.17181-.69922C60.07851,56.31439,59.91748,55.28517,59.75647,54.256Zm-8.13481-5.401c-2.56257,1.90591-5.13327,3.80174-7.66372,5.74965-1.12779.86819-1.883.67783-2.55779-.53762-.71632-1.29012-1.52232-2.53048-2.34423-3.88329,3.34666-2.406,6.60019-4.8513,9.96722-7.1289,2.32-1.56934,2.41684-1.4888,4.25581.61106a30.75115,30.75115,0,0,1,1.8672,2.63425C53.90667,47.19729,52.75414,48.01269,51.62166,48.855Zm-1.1011,10.06074c.41527-.93549.83055-1.87093,1.25722-2.8321C52.508,57.373,52.29,58.01617,50.52056,58.91571Zm4.76114-5.95014c.86554,2.33073.56525,4.04681-1.43067,5.33163C54.2967,56.63636,54.74237,54.97547,55.2817,52.96557Zm1.25259,5.32965c.44058.22644.89265.45876,1.37333.70576-.0153.05059-.01372.16055-.066.201-.74019.5734-1.48767,1.13733-2.23338,1.70359l-.36985-.58432ZM43.65544,36.598c.43383-.24064,1.14346-.63434,1.8531-1.028l.52827.26695c-.74607,2.02227-1.49214,4.04454-2.38137,6.45488Zm-3.89168,2.85806c-.22666.80813-.37176,1.34729-.52985,1.88268-.14566.49338-.30531.9827-.46121,1.48152A2.32051,2.32051,0,0,1,39.76376,39.45606Zm-3.72285,6.21542c.964.42894,1.94375.82842,2.8732,1.32243.12258.06519.11368.74859-.05625.90593-.2518.23311-.87533.46117-1.03835.32623a29.29143,29.29143,0,0,1-2.14277-2.11749Zm-.73634-3.507-.36833,2.80391c-.56079-.48795-1.01959-.88712-1.69808-1.47749Zm-4.79336,3.09923c1.04351-.76319,1.75181-.25209,2.3792.62206,2.6303,3.66487,5.20023,7.37608,7.93422,10.96207,1.1069,1.45189,2.38992,2.726,2.46383,4.7691-2.13084.14183-4.24265.28238-5.96559.397-1.88958-2.494-3.52326-4.81649-5.33327-6.99233-1.81027-2.17611-3.79687-4.20548-5.89886-6.51048C27.66563,47.35371,29.08635,46.30582,30.51121,45.26367Zm.64037,11.92991,3.01371,4.62161H26.19447Zm-3.56237-.08431c.37173-1.00857.66562-1.806.94518-2.56449C29.68415,55.74125,29.52544,56.32982,27.58921,57.10927Zm-7.34587-4.205c.534-1.25562,2.34233-2.08251,3.74074-2.78664.40689-.20492,1.59584.50777,1.99614,1.09375a7.1924,7.1924,0,0,1,.59968,2.50527l-.51468.08106a1.93277,1.93277,0,0,0-.07615-.4008c-.32936-.78835-.71588-2.26028-.99886-2.24134-1.43.09575-.59172,1.33194-.7412,2.09759-.29042,1.48735-.54966,2.98072-.82182,4.47163l-.52426-.07177c.24428-1.4287.57441-2.8506.68927-4.28965.044-.55134-.40373-1.14189-.62739-1.71459-.40855.42075-1.03774.7756-1.18671,1.27394-.581,1.94384-1.00993,3.93318-1.49543,5.90555l-.61163-.09951C19.813,56.76648,19.515,54.61716,20.24334,52.90424Zm1.15494,7.9699c.37664.46853.62368.77586,1.204,1.49771-2.00535.17177-3.65362.313-5.56326.4766.43422-.87074.73559-1.475,1.13525-2.27637C19.07971,62.33791,20.12112,62.50087,21.39828,60.87414Zm-3.20274-6.40832-1.65849,4.61337C15.57817,56.41667,15.95828,55.32129,18.19554,54.46582ZM9.93959,60.46664l.78726,2.48444H7.01709Zm69.54,16.20114c-5.07024.79989-10.11532,1.75922-15.18587,2.557-4.45195.70041-8.914,1.3611-13.39061,1.87382-5.12217.58655-10.26278,1.01957-15.4001,1.46456-4.18068.36213-8.36472.71676-12.55469.92624-1.77652.08878-3.57092-.22482-5.35921-.3154-2.67149-.13534-5.34407-.29378-8.0176-.32653-1.45748-.01784-2.00392-.448-1.49974-1.93791a14.91777,14.91777,0,0,0,.20375-1.94546c.08308-.43714.216-1.07214.52314-1.22558a39.5937,39.5937,0,0,1,5.80945-2.56967c.7004-.218,1.71261.57371,2.58488.89761a37.14542,37.14542,0,0,0,6.15242,2.202c3.39294.60435,6.23692-.91646,8.73281-3.16166a2.26723,2.26723,0,0,1,1.51173-.65871,63.44353,63.44353,0,0,1,8.77643,1.39647c3.5913.98823,6.50583-.49172,9.48355-1.91314a4.17893,4.17893,0,0,1,2.599-.22728,48.80843,48.80843,0,0,0,8.26907.19895c1.66308-.09026,3.18231-.71277,4.98287-.05278a6.46158,6.46158,0,0,0,4.26072-.28716A18.69977,18.69977,0,0,1,79.193,72.49773a17.64159,17.64159,0,0,0,4.06373-.8017,2.36069,2.36069,0,0,0-.04807.58473C83.37019,75.00993,82.05969,76.26072,79.47956,76.66778Zm-68.577-4.58233c-.79475,1.10322-1.58949,2.20644-2.48755,3.45311C7.46416,73.0625,9.53222,72.82247,10.90259,72.08545Zm12.20282-.569a1.93358,1.93358,0,0,0-1.71382-.06146,6.45847,6.45847,0,0,0-1.51252,1.34246c-.6606-.92391-1.15338-1.61305-1.64615-2.30219L16.42074,71.8918c-.52882-.69037-1.12056-1.46289-1.95894-2.55735,4.1953.58156,8.29753.20777,12.179,2.02516C24.62758,73.16482,24.67546,73.11791,23.10541,71.51643Zm4.75075,1.08639c.8491.46827,1.62311.89515,2.38008,1.31265-1.79585,2.66467-5.11345,3.66206-10.64723,1.26833.81473-.64267,1.50562-1.18762,2.17631-1.71665C24.5002,75.2888,24.53543,75.28279,27.85616,72.60282Zm-13.3674-.55288c-.17843.45257-.23269,1.11637-.563,1.31055a7.20353,7.20353,0,0,1-1.96084.525l-.20172-.30338a8.66851,8.66851,0,0,1,1.39012-1.48035C13.466,71.88939,14.03509,72.05467,14.48876,72.04994Zm24.64471-.57822c.71437,1.88495,2.00535,1.7714,3.42348.99006a2.39711,2.39711,0,0,1,2.02347-.11973c1.2826.32412,2.77136-.18225,4.17468-.31539.71842-.06817,1.44117-.09084,2.162-.134l.06173.49952c-2.474,1.136-4.70108,2.89528-7.85355,1.88838a63.72068,63.72068,0,0,0-7.1116-1.39657C37.335,72.28585,38.18335,71.90184,39.13347,71.47172Zm.77314-3.832L37.64877,70.7158C36.65927,67.79058,36.90656,67.47063,39.90661,67.63968Zm.91662,3.41283q.23788-1.34194.47662-2.68839c1.072.22087,2.03256.41881,2.99313.61671l.178.47121Q42.8638,70.48449,41.25671,71.517Zm4.93755-.68682c1.0048-1.53331,2.63471-.195,3.8472-.77428l.11789.46564q-1.89068.49708-3.78139.99414ZM33.30414,72.41062l-.06692-.39435c.56268-.33258,1.12538-.66512,1.81625-1.0735.31474.57809.54648,1.00375,1.032,1.89552C34.89536,72.6553,34.09975,72.53294,33.30414,72.41062ZM57.015,68.38108c-1.35487.58138-2.65707,1.292-4.03191,1.81538-.31739.12087-.84223-.30329-1.27161-.47664.29384-.27743.542-.69953.88885-.809a66.162,66.162,0,0,1,6.92835-1.99083c1.003-.19952,2.15313.34152,3.19272.5378-.27226,2.60185-2.42587,2.51285-3.7632,3.429a7.855,7.855,0,0,1-.483-1.41555,6.88649,6.88649,0,0,1,.07054-1.42418A7.99924,7.99924,0,0,0,57.015,68.38108ZM83.75832,69.701c-.98233.1142-2.40612.30213-2.72068.33985-1.32719.15919-2.64981.35613-3.97634.5215a9.70018,9.70018,0,0,0-2.478.29592c-2.714,1.13593-5.35286,2.33885-8.29674.60756-.38157-.22443-1.12091.08229-1.67.23258-3.4525.94451-6.89729,1.86452-10.55637-.26617.85572-.51956,1.49909-.91018,2.0459-1.24215.61176.81786,1.02043,1.91749,1.70477,2.13025.74984.2331,1.755-.34894,2.64737-.582,1.23379-.32223,2.46345-.66068,3.69968-.973,1.18242-.29873,2.371-.573,3.643-.87875.6802,1.79039,1.9565,1.948,3.448,1.15166,2.448-1.30682,5.02624-1.421,7.75236-1.54869,1.35728-.06357,2.63021-2.11065,3.91748-3.2866a2.36157,2.36157,0,0,0,.36842-.74386l.4978.01771C83.78491,66.88544,83.85742,68.29925,83.75832,69.701ZM69.28715,67.52929c1.73249-.50716,3.49439-1.023,5.2563-1.53874l.28.63324a5.93845,5.93845,0,0,1-5.13486,3.0254ZM93.8488,50.81757c-.081.73487-.35612,1.55251-1.65529,1.22374-1.10943-.28076-1.61884.67542-1.14062,1.79232,1.11374,2.60106.4876,3.73028-2.22464,4.55274a2.96031,2.96031,0,0,0-1.70746,1.68819,2.87437,2.87437,0,0,1-2.82676,2.254c-1.39316.05186-4.18177,1.66329-3.65248,2.05755-1.74275,1.53642-3.46194.67608-5.003.1915a5.16844,5.16844,0,0,0-3.91748.28769c-3.17794,1.38709-6.38473,1.9583-9.82307.593-2.41912-.9606-4.8118.03823-7.05007,1.02549-5.24186,2.312-10.24014,1.29578-15.23017-.851a2.57424,2.57424,0,0,0-2.15552.21877,16.5,16.5,0,0,1-9.86731,3.5863c-1.85278-.00127-3.69758-.71658-5.55978-1.02628-1.69341-.28177-3.41008-.42074-5.10823-.67752-2.97454-.44973-5.13072,1.11883-7.18677,2.89444A16.72281,16.72281,0,0,0,8.101,72.65372c-.235-2.64411-.49356-4.68347-.53036-6.72687-.00706-.39137.83975-1.1187,1.32494-1.14759,3.84828-.22881,7.7721-.8254,11.53782-.31469,3.342.45323,6.13743-1.70552,9.34168-1.05347.32457.06607.7063-.1722,1.03984-.12288,5.10957.7563,10.18473.26208,15.25839-.3748q1.76519-.22163,3.53652-.39313c5.14243-.49553,10.28367-1.00585,15.43077-1.44777a15.23538,15.23538,0,0,1,2.63028.25459c2.94012.27155,5.90927.92172,8.81479.70909,4.15223-.30391,6.7119-3.28669,8.14763-6.87054a45.03041,45.03041,0,0,0,2.22508-9.0548c.65986-3.80648-1.51384-6.73389-3.48139-9.678a22.09,22.09,0,0,0-9.01844-7.52048,31.32142,31.32142,0,0,0-7.48767-2.41965c-4.86219-.9642-9.43889.52671-13.91061,2.28409-1.48655-4.23546-1.4296-7.72944,1.59626-10.16438,3.32426-2.675,6.08861-1.69648,8.13926,1.98943.27631.49672.90811,1.29367,1.13906,1.21922a2.54553,2.54553,0,0,0,1.46145-1.24724c1.24957-3.04644,6.30435-4.83757,9.4132-3.41909a5.89613,5.89613,0,0,1,3.70376,5.13281c.05524.56774-.41031,1.1678-.47651,1.77053a15.277,15.277,0,0,0,.04472,2.13134,6.34384,6.34384,0,0,0,1.754-.34569c1.63995-.84938,4.74389-.40338,6.45015,1.027,1.77195,1.48539,2.0499,2.86371,1.08349,5.37937-.49861,1.298.37368,1.72542,1.28573,2.32929a28.13572,28.13572,0,0,1,4.38987,3.429c1.02109,1.01918.74451,3.496-.28505,4.4865-.75188.72342-1.0495,1.38915-.18416,2.185C94.35416,46.40779,94.08822,48.64589,93.8488,50.81757Z"/></svg>